<?xml version="1.0" encoding="utf-8"?>
<!-- Generator: Adobe Illustrator 25.0.0, SVG Export Plug-In . SVG Version: 6.00 Build 0)  -->
<svg version="1.1" id="Layer_1" xmlns="http://www.w3.org/2000/svg" xmlns:xlink="http://www.w3.org/1999/xlink" x="0px" y="0px"
	 viewBox="0 0 200 52" style="enable-background:new 0 0 200 52;" xml:space="preserve">
<style type="text/css">
	.st0{fill:#542DED;}
	.st1{font-family:'LithosPro-Black';}
	.st2{font-size:16.3793px;}
</style>
<g>
	<g>
		<path class="st0" d="M83.7,26.6c-0.1,0-0.2,0-0.4,0h1L83.7,26.6z"/>
		<path class="st0" d="M137.3,17.9c-6.5,5.8-16.8,6-16.8,6c5.8-1.9,9.6-4.5,11.3-5.9l-6.7,0.1c-1,0.9-3.4,2.6-7,3c0,0,3-1.1,4.1-3
			l-56.9,0.5l35,1.7h14.9c0,0-19.6,2-19.9,2.1c7.8,1.1,13.5,3.3,15.8,4.4h7.7c8.4,0,16.5-3,22.8-8.5l0.3-0.3L137.3,17.9z"/>
		<path class="st0" d="M118.5,14.2c-0.4,0-0.8,0-1.2-0.1c-1.6-0.1-3.1-0.5-4.4-1.4c-2.6-1.6-6.5-3.6-10.4-4.2C96.1,7.8,69,10,69,10
			c13.3,0.2,27.8-0.1,31.6,4.2c-12.1,0.4-24.8,1.1-24.8,1.1c15-0.3,27.3,1.1,30.6,1.5c0.6,0.1,1.2,0.1,1.8,0.1h23.1
			C128.1,16,123.7,14.6,118.5,14.2z M108.3,14.1c0,0-1-2.7-8.1-4.5c0,0,7.9,0.2,12.2,4.5H108.3z"/>
		<path class="st0" d="M75.6,23.5c6.7-1,15.5,1.5,19.8,3h11.2c-2-0.7-11.5-4.5-27.6-5.3c-10.1-0.5-19.4,4.4-21,5.3h29.5
			C82.6,24.1,75.6,23.5,75.6,23.5z"/>
		<g>
			<path class="st0" d="M97.2,6.7c-0.8-3.3-3.8-5.8-7.4-5.8c-3.8,0-7,2.8-7.6,6.4C87.3,7,92.9,6.8,97.2,6.7z"/>
		</g>
	</g>
	<g>
		<g>
			<g>
				<path class="st0" d="M60.2,50.1c-0.2,0-0.4,0-0.5-0.1s-0.3-0.2-0.4-0.3l0.1-0.1c0.1,0.1,0.2,0.2,0.4,0.2S60,50,60.2,50
					s0.3,0,0.4-0.1c0.1,0,0.2-0.1,0.2-0.2c0.1-0.1,0.1-0.2,0.1-0.3c0-0.1,0-0.2-0.1-0.3c-0.1-0.1-0.1-0.1-0.2-0.2
					c-0.1,0-0.2-0.1-0.3-0.1c-0.1,0-0.2-0.1-0.3-0.1c-0.1,0-0.2-0.1-0.3-0.1c-0.1,0-0.2-0.1-0.2-0.2c-0.1-0.1-0.1-0.2-0.1-0.3
					c0-0.1,0-0.2,0.1-0.3s0.2-0.2,0.3-0.3c0.1-0.1,0.3-0.1,0.5-0.1c0.1,0,0.3,0,0.4,0.1c0.1,0,0.3,0.1,0.4,0.2L61,47.9
					c-0.1-0.1-0.2-0.1-0.3-0.2c-0.1,0-0.2-0.1-0.4-0.1c-0.2,0-0.3,0-0.4,0.1c-0.1,0-0.2,0.1-0.2,0.2c-0.1,0.1-0.1,0.2-0.1,0.3
					c0,0.1,0,0.2,0.1,0.3s0.1,0.1,0.2,0.2s0.2,0.1,0.3,0.1s0.2,0.1,0.3,0.1c0.1,0,0.2,0.1,0.3,0.1c0.1,0,0.2,0.1,0.2,0.2
					c0.1,0.1,0.1,0.2,0.1,0.3c0,0.1,0,0.2-0.1,0.3S60.9,50,60.7,50C60.6,50.1,60.4,50.1,60.2,50.1z"/>
				<path class="st0" d="M62.9,49.9h1.6v0.2h-1.8v-2.6h1.7v0.2h-1.5V49.9z M62.9,48.7h1.4v0.2h-1.4V48.7z"/>
				<path class="st0" d="M65.7,50.1l1.2-2.6H67l1.2,2.6H68l-1.1-2.5H67l-1.1,2.5H65.7z M66.1,49.4l0.1-0.2h1.5l0.1,0.2H66.1z"/>
				<path class="st0" d="M72,50.1v-2.4h-0.9v-0.2h2.1v0.2h-0.9v2.4H72z"/>
				<path class="st0" d="M74.7,50.1h-0.2v-2.6h0.2V50.1z M76.4,48.9h-1.8v-0.2h1.8V48.9z M76.4,47.5h0.2v2.6h-0.2V47.5z"/>
				<path class="st0" d="M78.6,49.9h1.6v0.2h-1.8v-2.6h1.7v0.2h-1.5V49.9z M78.6,48.7H80v0.2h-1.4V48.7z"/>
				<path class="st0" d="M84.3,50.1l-0.9-2.6h0.2l0.8,2.5h-0.1l0.9-2.5h0.2l0.9,2.5h-0.1l0.8-2.5h0.2l-0.9,2.6h-0.2l-0.8-2.4h0
					l-0.8,2.4H84.3z"/>
				<path class="st0" d="M89.8,50.1c-0.2,0-0.4,0-0.5-0.1c-0.2-0.1-0.3-0.2-0.4-0.3c-0.1-0.1-0.2-0.3-0.3-0.4s-0.1-0.3-0.1-0.5
					s0-0.4,0.1-0.5s0.2-0.3,0.3-0.4c0.1-0.1,0.3-0.2,0.4-0.3c0.2-0.1,0.3-0.1,0.5-0.1c0.2,0,0.4,0,0.5,0.1c0.2,0.1,0.3,0.2,0.4,0.3
					c0.1,0.1,0.2,0.3,0.3,0.4c0.1,0.2,0.1,0.3,0.1,0.5s0,0.4-0.1,0.5c-0.1,0.2-0.2,0.3-0.3,0.4c-0.1,0.1-0.3,0.2-0.4,0.3
					C90.2,50.1,90,50.1,89.8,50.1z M89.8,49.9c0.2,0,0.3,0,0.5-0.1s0.3-0.1,0.4-0.2s0.2-0.2,0.2-0.4c0.1-0.1,0.1-0.3,0.1-0.5
					c0-0.2,0-0.3-0.1-0.5c-0.1-0.1-0.1-0.3-0.2-0.4s-0.2-0.2-0.4-0.2s-0.3-0.1-0.5-0.1s-0.3,0-0.5,0.1c-0.1,0.1-0.3,0.1-0.4,0.2
					c-0.1,0.1-0.2,0.2-0.2,0.4c-0.1,0.1-0.1,0.3-0.1,0.5c0,0.2,0,0.3,0.1,0.5c0.1,0.1,0.1,0.3,0.2,0.4c0.1,0.1,0.2,0.2,0.4,0.2
					C89.5,49.9,89.6,49.9,89.8,49.9z"/>
				<path class="st0" d="M92.7,50.1v-2.6h0.9c0.2,0,0.4,0,0.6,0.1c0.2,0.1,0.3,0.2,0.4,0.3c0.1,0.1,0.1,0.3,0.1,0.5
					c0,0.2,0,0.3-0.1,0.5c-0.1,0.1-0.2,0.2-0.4,0.3c-0.2,0.1-0.3,0.1-0.6,0.1h-0.8l0.1-0.1v0.9H92.7z M92.9,49.2L92.9,49.2l0.7-0.1
					c0.3,0,0.5-0.1,0.6-0.2c0.1-0.1,0.2-0.3,0.2-0.5c0-0.2-0.1-0.4-0.2-0.5c-0.1-0.1-0.4-0.2-0.6-0.2h-0.8l0.1-0.1V49.2z M94.5,50.1
					l-0.7-0.9h0.2l0.7,0.9H94.5z"/>
				<path class="st0" d="M96.3,50.1v-2.6h0.2v2.4H98v0.2H96.3z"/>
				<path class="st0" d="M99.4,50.1v-2.6h1c0.3,0,0.5,0.1,0.7,0.2c0.2,0.1,0.4,0.3,0.5,0.5c0.1,0.2,0.2,0.4,0.2,0.7
					s-0.1,0.5-0.2,0.7c-0.1,0.2-0.3,0.3-0.5,0.5c-0.2,0.1-0.4,0.2-0.7,0.2H99.4z M99.6,49.9h0.8c0.2,0,0.5,0,0.6-0.1
					c0.2-0.1,0.3-0.2,0.4-0.4s0.1-0.4,0.1-0.6s0-0.4-0.1-0.6s-0.2-0.3-0.4-0.4c-0.2-0.1-0.4-0.1-0.6-0.1h-0.8V49.9z"/>
				<path class="st0" d="M105.2,50.1v-2.6h1c0.3,0,0.5,0.1,0.7,0.2c0.2,0.1,0.4,0.3,0.5,0.5c0.1,0.2,0.2,0.4,0.2,0.7
					s-0.1,0.5-0.2,0.7c-0.1,0.2-0.3,0.3-0.5,0.5c-0.2,0.1-0.4,0.2-0.7,0.2H105.2z M105.4,49.9h0.8c0.2,0,0.5,0,0.6-0.1
					c0.2-0.1,0.3-0.2,0.4-0.4s0.1-0.4,0.1-0.6s0-0.4-0.1-0.6s-0.2-0.3-0.4-0.4c-0.2-0.1-0.4-0.1-0.6-0.1h-0.8V49.9z"/>
				<path class="st0" d="M109.2,50.1v-2.6h0.2v2.6H109.2z"/>
				<path class="st0" d="M111.4,50.1h-0.2v-2.6h1.7v0.2h-1.5V50.1z M111.4,48.8h1.4V49h-1.4V48.8z"/>
				<path class="st0" d="M114.7,50.1h-0.2v-2.6h1.7v0.2h-1.5V50.1z M114.7,48.8h1.4V49h-1.4V48.8z"/>
				<path class="st0" d="M117.9,49.9h1.6v0.2h-1.8v-2.6h1.7v0.2h-1.5V49.9z M117.9,48.7h1.4v0.2h-1.4V48.7z"/>
				<path class="st0" d="M121.1,50.1v-2.6h0.9c0.2,0,0.4,0,0.6,0.1c0.2,0.1,0.3,0.2,0.4,0.3c0.1,0.1,0.1,0.3,0.1,0.5
					c0,0.2,0,0.3-0.1,0.5c-0.1,0.1-0.2,0.2-0.4,0.3s-0.3,0.1-0.6,0.1h-0.8l0.1-0.1v0.9H121.1z M121.3,49.2L121.3,49.2l0.7-0.1
					c0.3,0,0.5-0.1,0.6-0.2c0.1-0.1,0.2-0.3,0.2-0.5c0-0.2-0.1-0.4-0.2-0.5c-0.1-0.1-0.4-0.2-0.6-0.2h-0.8l0.1-0.1V49.2z
					 M122.9,50.1l-0.7-0.9h0.2l0.7,0.9H122.9z"/>
				<path class="st0" d="M124.9,49.9h1.6v0.2h-1.8v-2.6h1.7v0.2h-1.5V49.9z M124.9,48.7h1.4v0.2h-1.4V48.7z"/>
				<path class="st0" d="M128.1,50.1v-2.6h0.2l1.8,2.4H130v-2.4h0.2v2.6h-0.2l-1.8-2.4h0.1v2.4H128.1z"/>
				<path class="st0" d="M132.6,50.1v-2.4h-0.9v-0.2h2.1v0.2h-0.9v2.4H132.6z"/>
				<path class="st0" d="M135.1,50.1v-2.6h0.2v2.4h1.5v0.2H135.1z"/>
				<path class="st0" d="M138.8,50.1v-0.9l0,0.1l-1.1-1.8h0.2l1,1.6h-0.1l1-1.6h0.2l-1.1,1.8l0-0.1v0.9H138.8z"/>
			</g>
		</g>
		<text transform="matrix(1 0 0 1 57.5864 44.5133)" class="st0 st1 st2">NAUTICA</text>
	</g>
</g>
</svg>
