<?xml version="1.0" encoding="utf-8"?>
<!-- Generator: Adobe Illustrator 25.0.0, SVG Export Plug-In . SVG Version: 6.00 Build 0)  -->
<svg version="1.1" id="Layer_1" xmlns="http://www.w3.org/2000/svg" xmlns:xlink="http://www.w3.org/1999/xlink" x="0px" y="0px"
	 viewBox="0 0 160 34" style="enable-background:new 0 0 160 34;" xml:space="preserve">
<style type="text/css">
	.st0{fill:url(#SVGID_1_);}
	.st1{fill:url(#SVGID_2_);}
	.st2{fill:url(#SVGID_3_);}
	.st3{fill:url(#SVGID_4_);}
	.st4{fill:#FFFFFF;}
</style>
<g>
	<g>
		<linearGradient id="SVGID_1_" gradientUnits="userSpaceOnUse" x1="0" y1="28.7416" x2="39.0406" y2="28.7416">
			<stop  offset="0" style="stop-color:#3558EA"/>
			<stop  offset="1" style="stop-color:#0000FF"/>
		</linearGradient>
		<path class="st0" d="M39,31.3c0,0-24.4-8.1-39-3.9C0,27.4,29.5,28.6,39,31.3z"/>
		<linearGradient id="SVGID_2_" gradientUnits="userSpaceOnUse" x1="6.4656" y1="23.5268" x2="50.9151" y2="23.5268">
			<stop  offset="0" style="stop-color:#3558EA"/>
			<stop  offset="1" style="stop-color:#0000FF"/>
		</linearGradient>
		<path class="st1" d="M36.6,19.1c-0.6-0.5-2.4-1.6-5.7-2.2c0,0,1,0.8,1.1,1.5c-1.6,0.2-3.2,0.4-4.8,0.6c0.1-0.5,0.5-1,0.5-1
			c-1,0.2-1.7,0.8-2.1,1.2c-0.8,0.1-1.7,0.3-2.5,0.4c0.6-1.5,3.1-2.3,3.1-2.3c-3.9,0.6-5.5,2.1-6.1,2.9c-1,0.2-2,0.5-3,0.7
			c1.7-3.4,6-4.7,12.1-4.7c-4.8-0.7-10.7-0.1-17.9,1.9l5.1,0.6c0,0-3.2,1.2-5,3.9c-1.8,0.6-3.4,1.3-4.7,2.2c1.2-0.1,2.4-0.1,3.6-0.1
			c1.8,0,3.6,0.1,5.4,0.2c7-1.9,18.2-3,29.8-4.1c-2.3,2.5-11.1,3.5-20.6,4.4l-1.3,0.7c3.2,0.5,6.1,1.2,8.6,1.8
			c2.8-0.4,6.2-0.8,10.3-1.3c0,0-3.5,1.1-7.7,2c2.8,0.8,4.6,1.4,4.9,1.4c0.4,0.1,0.7,0.5,0.8,0.9c3.9-1.4,7.4-5.8,10.7-11.8
			C46.9,18.6,42,18.7,36.6,19.1z"/>
		<linearGradient id="SVGID_3_" gradientUnits="userSpaceOnUse" x1="0" y1="29.9795" x2="34.9132" y2="29.9795">
			<stop  offset="0" style="stop-color:#3558EA"/>
			<stop  offset="1" style="stop-color:#0000FF"/>
		</linearGradient>
		<path class="st2" d="M34.9,31.3c0,0-25.7-4.4-34.9-1.8C0,29.5,30.7,30.4,34.9,31.3z"/>
	</g>
	<linearGradient id="SVGID_4_" gradientUnits="userSpaceOnUse" x1="4.4492" y1="14.1216" x2="45.3583" y2="14.1216">
		<stop  offset="0" style="stop-color:#3558EA"/>
		<stop  offset="1" style="stop-color:#0000FF"/>
	</linearGradient>
	<path class="st3" d="M5.6,25.4C5.6,25.4,5.6,25.4,5.6,25.4c-0.2-0.4,0-0.9,0.4-1.2c0.3-0.2,0.6-0.4,1-0.6
		C7.3,13.4,15.4,5.2,25.4,5.2c8,0,14.8,5.2,17.4,12.5c0.6,0,1.3,0,1.9,0c0.2,0,0.5,0,0.7,0c-2.7-8.7-10.6-15-19.9-15
		c-11.6,0-21,9.7-21,21.7c0,0.4,0,0.7,0,1.1C4.8,25.5,5.2,25.4,5.6,25.4z"/>
</g>
<g>
	<g>
		<g>
			<path class="st4" d="M72.3,27.5l-0.8-2.3h0.6l0.7,2.1h-0.3l0.7-2.1h0.5l0.7,2.1h-0.3l0.7-2.1h0.5l-0.8,2.3H74l-0.6-1.8h0.2
				l-0.6,1.8H72.3z"/>
			<path class="st4" d="M76.9,27.5h-0.6v-2.3h0.6V27.5z M78,26.5h-1.2v-0.5H78V26.5z M78,25.1h0.6v2.3H78V25.1z"/>
			<path class="st4" d="M80.2,27h1.3v0.4h-1.9v-2.3h1.8v0.4h-1.3V27z M80.2,26.1h1.2v0.4h-1.2V26.1z"/>
			<path class="st4" d="M82.5,27.5v-2.3h1.1c0.2,0,0.4,0,0.6,0.1c0.2,0.1,0.3,0.2,0.4,0.3s0.1,0.3,0.1,0.4c0,0.2,0,0.3-0.1,0.4
				s-0.2,0.2-0.4,0.3c-0.2,0.1-0.3,0.1-0.6,0.1h-0.7l0.3-0.2v0.9H82.5z M83.1,26.6l-0.3-0.3h0.7c0.2,0,0.3,0,0.4-0.1
				C84,26.2,84,26.1,84,26c0-0.1,0-0.2-0.1-0.3c-0.1-0.1-0.2-0.1-0.4-0.1h-0.7l0.3-0.3V26.6z M84,27.5l-0.6-0.8H84l0.6,0.8H84z"/>
			<path class="st4" d="M86.1,27h1.3v0.4h-1.9v-2.3h1.8v0.4h-1.3V27z M86.1,26.1h1.2v0.4h-1.2V26.1z"/>
			<path class="st4" d="M90.4,27.5v-1.9h-0.8v-0.4h2.1v0.4H91v1.9H90.4z"/>
			<path class="st4" d="M93.2,27.5h-0.6v-2.3h0.6V27.5z M94.3,26.5h-1.2v-0.5h1.2V26.5z M94.3,25.1h0.6v2.3h-0.6V25.1z"/>
			<path class="st4" d="M96.5,27h1.3v0.4h-1.9v-2.3h1.8v0.4h-1.3V27z M96.5,26.1h1.2v0.4h-1.2V26.1z"/>
			<path class="st4" d="M100.3,27.5v-2.3h1.2c0.3,0,0.5,0.1,0.7,0.2c0.2,0.1,0.2,0.3,0.2,0.4c0,0.1,0,0.2-0.1,0.3s-0.1,0.2-0.3,0.2
				c-0.1,0-0.2,0.1-0.4,0.1l0.1-0.1c0.2,0,0.3,0,0.4,0.1s0.2,0.1,0.3,0.2c0.1,0.1,0.1,0.2,0.1,0.3c0,0.2-0.1,0.4-0.2,0.5
				c-0.2,0.1-0.4,0.2-0.7,0.2H100.3z M100.9,27.1h0.7c0.1,0,0.3,0,0.3-0.1c0.1,0,0.1-0.1,0.1-0.2c0-0.1,0-0.2-0.1-0.2
				c-0.1,0-0.2-0.1-0.3-0.1h-0.7v-0.4h0.6c0.1,0,0.2,0,0.3-0.1c0.1,0,0.1-0.1,0.1-0.2s0-0.2-0.1-0.2s-0.2-0.1-0.3-0.1h-0.6V27.1z"/>
			<path class="st4" d="M104,27h1.3v0.4h-1.9v-2.3h1.8v0.4H104V27z M104,26.1h1.2v0.4H104V26.1z"/>
			<path class="st4" d="M106,27.5l1.1-2.3h0.6l1.1,2.3h-0.6l-0.9-2h0.2l-0.9,2H106z M106.6,27l0.1-0.4h1.3l0.1,0.4H106.6z"/>
			<path class="st4" d="M110.7,27.5c-0.2,0-0.4,0-0.5-0.1s-0.3-0.1-0.4-0.3s-0.2-0.2-0.3-0.4c-0.1-0.1-0.1-0.3-0.1-0.5
				s0-0.3,0.1-0.5c0.1-0.1,0.2-0.3,0.3-0.4c0.1-0.1,0.3-0.2,0.4-0.2c0.2-0.1,0.3-0.1,0.5-0.1c0.2,0,0.4,0,0.6,0.1
				c0.2,0.1,0.3,0.2,0.4,0.3l-0.4,0.3c-0.1-0.1-0.2-0.2-0.3-0.2c-0.1,0-0.2-0.1-0.3-0.1c-0.1,0-0.2,0-0.3,0.1
				c-0.1,0-0.2,0.1-0.2,0.2c-0.1,0.1-0.1,0.1-0.2,0.2s-0.1,0.2-0.1,0.3s0,0.2,0.1,0.3s0.1,0.2,0.2,0.2c0.1,0.1,0.2,0.1,0.2,0.2
				c0.1,0,0.2,0.1,0.3,0.1c0.1,0,0.2,0,0.3-0.1c0.1,0,0.2-0.1,0.3-0.2l0.4,0.3c-0.1,0.1-0.3,0.2-0.4,0.3
				C111.1,27.5,110.9,27.5,110.7,27.5z"/>
			<path class="st4" d="M113.2,27.5h-0.6v-2.3h0.6V27.5z M114.3,26.5h-1.2v-0.5h1.2V26.5z M114.3,25.1h0.6v2.3h-0.6V25.1z"/>
			<path class="st4" d="M117.4,27.5v-2.3h0.5l1,1.6h-0.2l1-1.6h0.5v2.3h-0.5l0-1.5h0.1l-0.8,1.3h-0.3l-0.8-1.3h0.1v1.5H117.4z"/>
			<path class="st4" d="M121.8,27h1.3v0.4h-1.9v-2.3h1.8v0.4h-1.3V27z M121.8,26.1h1.2v0.4h-1.2V26.1z"/>
			<path class="st4" d="M124.7,27h1.3v0.4h-1.9v-2.3h1.8v0.4h-1.3V27z M124.7,26.1h1.2v0.4h-1.2V26.1z"/>
			<path class="st4" d="M127.5,27.5v-1.9h-0.8v-0.4h2.1v0.4h-0.8v1.9H127.5z"/>
			<path class="st4" d="M130.5,27.5c-0.2,0-0.4,0-0.6-0.1s-0.3-0.1-0.4-0.2l0.2-0.4c0.1,0.1,0.2,0.1,0.4,0.2c0.1,0,0.3,0.1,0.4,0.1
				c0.1,0,0.2,0,0.3,0c0.1,0,0.1-0.1,0.2-0.1c0,0,0-0.1,0-0.1c0-0.1,0-0.1-0.1-0.1c-0.1,0-0.1-0.1-0.2-0.1c-0.1,0-0.2,0-0.3-0.1
				c-0.1,0-0.2,0-0.3-0.1c-0.1,0-0.2-0.1-0.3-0.1c-0.1,0-0.2-0.1-0.2-0.2s-0.1-0.2-0.1-0.3c0-0.1,0-0.3,0.1-0.4s0.2-0.2,0.3-0.3
				c0.2-0.1,0.3-0.1,0.6-0.1c0.2,0,0.3,0,0.5,0.1c0.2,0,0.3,0.1,0.4,0.2l-0.2,0.4c-0.1-0.1-0.2-0.1-0.3-0.1c-0.1,0-0.2,0-0.3,0
				c-0.1,0-0.2,0-0.3,0s-0.1,0.1-0.1,0.1c0,0,0,0.1,0,0.1c0,0.1,0,0.1,0.1,0.1c0.1,0,0.1,0.1,0.2,0.1c0.1,0,0.2,0,0.3,0.1
				c0.1,0,0.2,0,0.3,0.1s0.2,0.1,0.3,0.1c0.1,0,0.2,0.1,0.2,0.2c0.1,0.1,0.1,0.2,0.1,0.3c0,0.1,0,0.2-0.1,0.4s-0.2,0.2-0.3,0.3
				C130.9,27.5,130.7,27.5,130.5,27.5z"/>
			<path class="st4" d="M134.4,27.5v-1.9h-0.8v-0.4h2.1v0.4H135v1.9H134.4z"/>
			<path class="st4" d="M137.1,27.5h-0.6v-2.3h0.6V27.5z M138.3,26.5h-1.2v-0.5h1.2V26.5z M138.3,25.1h0.6v2.3h-0.6V25.1z"/>
			<path class="st4" d="M140.5,27h1.3v0.4h-1.9v-2.3h1.8v0.4h-1.3V27z M140.4,26.1h1.2v0.4h-1.2V26.1z"/>
			<path class="st4" d="M145.1,27.5c-0.2,0-0.4,0-0.6-0.1s-0.3-0.1-0.4-0.2l0.2-0.4c0.1,0.1,0.2,0.1,0.4,0.2c0.1,0,0.3,0.1,0.4,0.1
				c0.1,0,0.2,0,0.3,0c0.1,0,0.1-0.1,0.2-0.1c0,0,0-0.1,0-0.1c0-0.1,0-0.1-0.1-0.1c-0.1,0-0.1-0.1-0.2-0.1c-0.1,0-0.2,0-0.3-0.1
				c-0.1,0-0.2,0-0.3-0.1c-0.1,0-0.2-0.1-0.3-0.1c-0.1,0-0.2-0.1-0.2-0.2s-0.1-0.2-0.1-0.3c0-0.1,0-0.3,0.1-0.4s0.2-0.2,0.3-0.3
				c0.2-0.1,0.3-0.1,0.6-0.1c0.2,0,0.3,0,0.5,0.1c0.2,0,0.3,0.1,0.4,0.2l-0.2,0.4c-0.1-0.1-0.2-0.1-0.3-0.1c-0.1,0-0.2,0-0.3,0
				c-0.1,0-0.2,0-0.3,0s-0.1,0.1-0.1,0.1c0,0,0,0.1,0,0.1c0,0.1,0,0.1,0.1,0.1c0.1,0,0.1,0.1,0.2,0.1c0.1,0,0.2,0,0.3,0.1
				c0.1,0,0.2,0,0.3,0.1s0.2,0.1,0.3,0.1c0.1,0,0.2,0.1,0.2,0.2c0.1,0.1,0.1,0.2,0.1,0.3c0,0.1,0,0.2-0.1,0.4s-0.2,0.2-0.3,0.3
				C145.5,27.5,145.3,27.5,145.1,27.5z"/>
			<path class="st4" d="M147.6,27h1.3v0.4H147v-2.3h1.8v0.4h-1.3V27z M147.5,26.1h1.2v0.4h-1.2V26.1z"/>
			<path class="st4" d="M149.6,27.5l1.1-2.3h0.6l1.1,2.3h-0.6l-0.9-2h0.2l-0.9,2H149.6z M150.1,27l0.1-0.4h1.3l0.1,0.4H150.1z"/>
		</g>
	</g>
	<g>
		<g>
			<path class="st4" d="M75.4,18.9c-0.9,0-1.7-0.1-2.5-0.3s-1.4-0.5-1.9-0.8l0.8-1.8c0.4,0.3,1,0.6,1.6,0.8c0.6,0.2,1.3,0.3,1.9,0.3
				c0.5,0,0.9,0,1.2-0.1c0.3-0.1,0.5-0.2,0.7-0.4s0.2-0.3,0.2-0.6c0-0.3-0.1-0.5-0.3-0.6c-0.2-0.2-0.5-0.3-0.9-0.4
				c-0.4-0.1-0.8-0.2-1.2-0.3c-0.4-0.1-0.9-0.2-1.3-0.3c-0.4-0.1-0.8-0.3-1.2-0.5c-0.4-0.2-0.7-0.5-0.9-0.9
				c-0.2-0.4-0.3-0.8-0.3-1.3c0-0.6,0.2-1.1,0.5-1.6s0.8-0.9,1.5-1.1c0.7-0.3,1.5-0.4,2.5-0.4c0.7,0,1.3,0.1,2,0.2
				C78.4,8.7,79,9,79.5,9.2L78.7,11c-0.5-0.3-1-0.5-1.5-0.6c-0.5-0.1-1-0.2-1.5-0.2c-0.5,0-0.9,0.1-1.2,0.2s-0.5,0.2-0.6,0.4
				c-0.1,0.2-0.2,0.4-0.2,0.6c0,0.3,0.1,0.5,0.3,0.7s0.5,0.3,0.9,0.4c0.4,0.1,0.8,0.2,1.2,0.3c0.4,0.1,0.9,0.2,1.3,0.3
				c0.4,0.1,0.8,0.3,1.2,0.5c0.4,0.2,0.7,0.5,0.9,0.8c0.2,0.4,0.3,0.8,0.3,1.3c0,0.6-0.2,1.1-0.5,1.6c-0.3,0.5-0.8,0.9-1.5,1.1
				C77.3,18.7,76.4,18.9,75.4,18.9z"/>
			<path class="st4" d="M86.4,16.8h5.8v1.9h-8.2V8.5H92v1.9h-5.6V16.8z M86.2,12.6h5.1v1.8h-5.1V12.6z"/>
			<path class="st4" d="M95,18.7l4.7-10.2h2.4l4.8,10.2h-2.6l-3.9-9h1l-3.9,9H95z M97.4,16.5l0.6-1.8h5.5l0.6,1.8H97.4z"/>
			<path class="st4" d="M113.9,18.9c-0.9,0-1.7-0.1-2.5-0.3s-1.4-0.5-1.9-0.8l0.8-1.8c0.4,0.3,1,0.6,1.6,0.8
				c0.6,0.2,1.3,0.3,1.9,0.3c0.5,0,0.9,0,1.2-0.1c0.3-0.1,0.5-0.2,0.7-0.4c0.1-0.2,0.2-0.3,0.2-0.6c0-0.3-0.1-0.5-0.3-0.6
				c-0.2-0.2-0.5-0.3-0.9-0.4s-0.8-0.2-1.2-0.3c-0.4-0.1-0.9-0.2-1.3-0.3c-0.4-0.1-0.8-0.3-1.2-0.5c-0.4-0.2-0.7-0.5-0.9-0.9
				c-0.2-0.4-0.3-0.8-0.3-1.3c0-0.6,0.2-1.1,0.5-1.6s0.8-0.9,1.5-1.1c0.7-0.3,1.5-0.4,2.5-0.4c0.7,0,1.3,0.1,2,0.2
				c0.7,0.2,1.2,0.4,1.7,0.7l-0.8,1.8c-0.5-0.3-1-0.5-1.5-0.6c-0.5-0.1-1-0.2-1.5-0.2c-0.5,0-0.9,0.1-1.2,0.2s-0.5,0.2-0.6,0.4
				c-0.1,0.2-0.2,0.4-0.2,0.6c0,0.3,0.1,0.5,0.3,0.7c0.2,0.2,0.5,0.3,0.9,0.4c0.4,0.1,0.8,0.2,1.2,0.3c0.4,0.1,0.9,0.2,1.3,0.3
				c0.4,0.1,0.8,0.3,1.2,0.5s0.7,0.5,0.9,0.8s0.3,0.8,0.3,1.3c0,0.6-0.2,1.1-0.5,1.6c-0.3,0.5-0.8,0.9-1.5,1.1
				C115.7,18.7,114.9,18.9,113.9,18.9z"/>
			<path class="st4" d="M122.3,18.7V8.5h2.5v10.2H122.3z"/>
			<path class="st4" d="M129.6,18.7V8.5h4.8c1.2,0,2.2,0.2,3.1,0.6s1.6,1,2.1,1.8c0.5,0.8,0.7,1.7,0.7,2.7s-0.2,1.9-0.7,2.7
				c-0.5,0.8-1.2,1.3-2.1,1.8c-0.9,0.4-1.9,0.6-3.1,0.6H129.6z M132.1,16.8h2.2c0.7,0,1.3-0.1,1.8-0.4c0.5-0.3,0.9-0.6,1.2-1.1
				s0.4-1,0.4-1.7c0-0.6-0.1-1.2-0.4-1.7s-0.7-0.8-1.2-1.1c-0.5-0.3-1.1-0.4-1.8-0.4h-2.2V16.8z"/>
			<path class="st4" d="M146.9,16.8h5.8v1.9h-8.2V8.5h8.1v1.9h-5.6V16.8z M146.7,12.6h5.1v1.8h-5.1V12.6z"/>
		</g>
	</g>
</g>
</svg>
