<?xml version="1.0" encoding="utf-8"?>
<!-- Generator: Adobe Illustrator 25.0.0, SVG Export Plug-In . SVG Version: 6.00 Build 0)  -->
<svg version="1.1" id="Layer_1" xmlns="http://www.w3.org/2000/svg" xmlns:xlink="http://www.w3.org/1999/xlink" x="0px" y="0px"
	 viewBox="0 0 160 26" style="enable-background:new 0 0 160 26;" xml:space="preserve">
<style type="text/css">
	.st0{fill:#2CBEFF;}
	.st1{fill:#FFFFFF;}
</style>
<g>
	<g>
		<path class="st0" d="M42.6,25.5c0,0-22.2-7.1-35.5-3.4C7.1,22.1,33.9,23.1,42.6,25.5z"/>
		<path class="st0" d="M40.4,14.9c-0.6-0.5-2.1-1.4-5.2-1.9c0,0,0.9,0.7,1,1.3c-1.5,0.1-2.9,0.3-4.4,0.5c0.1-0.4,0.4-0.8,0.4-0.8
			c-0.9,0.1-1.5,0.7-1.9,1.1c-0.8,0.1-1.5,0.3-2.3,0.4c0.6-1.3,2.8-2,2.8-2c-3.6,0.6-5,1.8-5.6,2.6c-0.9,0.2-1.9,0.4-2.8,0.7
			c1.5-3,5.5-4.2,11-4.1c-4.3-0.6-9.8-0.1-16.3,1.7l4.6,0.6c0,0-2.9,1.1-4.6,3.4c-1.7,0.5-3.1,1.2-4.3,2c1.1-0.1,2.2-0.1,3.3-0.1
			c1.6,0,3.3,0.1,4.9,0.2c6.4-1.7,16.5-2.7,27.1-3.6c-2.1,2.2-10.1,3.1-18.8,3.8L28.3,21c2.9,0.5,5.6,1,7.8,1.6
			c2.6-0.3,5.7-0.7,9.4-1.2c0,0-3.2,1-7,1.8c2.6,0.7,4.2,1.2,4.4,1.3c0.4,0.1,0.6,0.4,0.7,0.8c3.5-1.2,6.7-5,9.7-10.4
			C49.7,14.4,45.3,14.4,40.4,14.9z"/>
		<path class="st0" d="M38.8,25.5c0,0-23.4-3.9-31.7-1.6C7.1,24,35,24.8,38.8,25.5z"/>
	</g>
	<path class="st0" d="M12.1,20.4C12.1,20.4,12.1,20.4,12.1,20.4c-0.1-0.4,0-0.8,0.3-1c0.3-0.2,0.6-0.4,0.9-0.5
		c0.4-9,7.8-16.1,16.8-16.1c7.2,0,13.4,4.6,15.8,11c0.6,0,1.1,0,1.7,0c0.2,0,0.4,0,0.7,0C45.8,6,38.6,0.4,30.2,0.4
		C19.6,0.4,11.1,9,11.1,19.5c0,0.3,0,0.6,0,1C11.5,20.4,11.8,20.4,12.1,20.4z"/>
</g>
<g>
	<g>
		<g>
			<path class="st1" d="M72.8,22.2l-0.7-2h0.5l0.6,1.8H73l0.7-1.8h0.5l0.6,1.8h-0.3l0.6-1.8h0.5l-0.7,2h-0.5l-0.6-1.6h0.1l-0.6,1.6
				H72.8z"/>
			<path class="st1" d="M77,22.2h-0.5v-2H77V22.2z M78,21.3h-1.1v-0.4H78V21.3z M78,20.1h0.5v2H78V20.1z"/>
			<path class="st1" d="M80,21.8h1.2v0.4h-1.7v-2h1.7v0.4H80V21.8z M79.9,20.9H81v0.4h-1.1V20.9z"/>
			<path class="st1" d="M82.1,22.2v-2h1c0.2,0,0.4,0,0.5,0.1c0.1,0.1,0.3,0.1,0.3,0.3c0.1,0.1,0.1,0.2,0.1,0.4c0,0.2,0,0.3-0.1,0.4
				c-0.1,0.1-0.2,0.2-0.3,0.3c-0.1,0.1-0.3,0.1-0.5,0.1h-0.7l0.2-0.2v0.8H82.1z M82.6,21.4l-0.2-0.2H83c0.2,0,0.3,0,0.4-0.1
				c0.1-0.1,0.1-0.1,0.1-0.3c0-0.1,0-0.2-0.1-0.3c-0.1-0.1-0.2-0.1-0.4-0.1h-0.6l0.2-0.2V21.4z M83.5,22.2l-0.6-0.7h0.5l0.6,0.7
				H83.5z"/>
			<path class="st1" d="M85.4,21.8h1.2v0.4h-1.7v-2h1.7v0.4h-1.2V21.8z M85.3,20.9h1.1v0.4h-1.1V20.9z"/>
			<path class="st1" d="M89.3,22.2v-1.7h-0.7v-0.4h1.9v0.4h-0.7v1.7H89.3z"/>
			<path class="st1" d="M91.8,22.2h-0.5v-2h0.5V22.2z M92.8,21.3h-1.1v-0.4h1.1V21.3z M92.8,20.1h0.5v2h-0.5V20.1z"/>
			<path class="st1" d="M94.8,21.8H96v0.4h-1.7v-2H96v0.4h-1.2V21.8z M94.8,20.9h1.1v0.4h-1.1V20.9z"/>
			<path class="st1" d="M98.3,22.2v-2h1.1c0.3,0,0.5,0,0.6,0.1c0.1,0.1,0.2,0.2,0.2,0.4c0,0.1,0,0.2-0.1,0.3
				c-0.1,0.1-0.1,0.1-0.2,0.2c-0.1,0-0.2,0.1-0.3,0.1l0.1-0.1c0.1,0,0.3,0,0.4,0.1s0.2,0.1,0.3,0.2c0.1,0.1,0.1,0.2,0.1,0.3
				c0,0.2-0.1,0.3-0.2,0.4c-0.2,0.1-0.4,0.1-0.7,0.1H98.3z M98.8,21.8h0.6c0.1,0,0.2,0,0.3-0.1c0.1,0,0.1-0.1,0.1-0.2
				c0-0.1,0-0.2-0.1-0.2c-0.1,0-0.2-0.1-0.3-0.1h-0.6V21h0.5c0.1,0,0.2,0,0.3-0.1s0.1-0.1,0.1-0.2c0-0.1,0-0.1-0.1-0.2
				c-0.1,0-0.2-0.1-0.3-0.1h-0.5V21.8z"/>
			<path class="st1" d="M101.7,21.8h1.2v0.4h-1.7v-2h1.7v0.4h-1.2V21.8z M101.6,20.9h1.1v0.4h-1.1V20.9z"/>
			<path class="st1" d="M103.5,22.2l1-2h0.5l1,2h-0.5l-0.8-1.8h0.2l-0.8,1.8H103.5z M104,21.7l0.1-0.4h1.1l0.1,0.4H104z"/>
			<path class="st1" d="M107.7,22.2c-0.2,0-0.3,0-0.5-0.1c-0.1-0.1-0.3-0.1-0.4-0.2c-0.1-0.1-0.2-0.2-0.3-0.3
				c-0.1-0.1-0.1-0.3-0.1-0.4s0-0.3,0.1-0.4c0.1-0.1,0.1-0.2,0.3-0.3c0.1-0.1,0.2-0.2,0.4-0.2c0.1-0.1,0.3-0.1,0.5-0.1
				c0.2,0,0.4,0,0.5,0.1c0.2,0.1,0.3,0.2,0.4,0.3l-0.3,0.3c-0.1-0.1-0.2-0.1-0.3-0.2c-0.1,0-0.2-0.1-0.3-0.1c-0.1,0-0.2,0-0.3,0
				c-0.1,0-0.2,0.1-0.2,0.1c-0.1,0.1-0.1,0.1-0.1,0.2c0,0.1-0.1,0.2-0.1,0.3c0,0.1,0,0.2,0.1,0.3s0.1,0.1,0.1,0.2
				c0.1,0.1,0.1,0.1,0.2,0.1c0.1,0,0.2,0,0.3,0c0.1,0,0.2,0,0.3-0.1c0.1,0,0.2-0.1,0.3-0.2l0.3,0.3c-0.1,0.1-0.2,0.2-0.4,0.3
				C108.1,22.2,107.9,22.2,107.7,22.2z"/>
			<path class="st1" d="M110,22.2h-0.5v-2h0.5V22.2z M111,21.3h-1.1v-0.4h1.1V21.3z M111,20.1h0.5v2H111V20.1z"/>
			<path class="st1" d="M113.8,22.2v-2h0.4l0.9,1.4H115l0.9-1.4h0.4v2h-0.5l0-1.4h0.1l-0.7,1.1H115l-0.8-1.1h0.1v1.4H113.8z"/>
			<path class="st1" d="M117.9,21.8h1.2v0.4h-1.7v-2h1.7v0.4h-1.2V21.8z M117.8,20.9h1.1v0.4h-1.1V20.9z"/>
			<path class="st1" d="M120.4,21.8h1.2v0.4h-1.7v-2h1.7v0.4h-1.2V21.8z M120.4,20.9h1.1v0.4h-1.1V20.9z"/>
			<path class="st1" d="M123,22.2v-1.7h-0.7v-0.4h1.9v0.4h-0.7v1.7H123z"/>
			<path class="st1" d="M125.7,22.2c-0.2,0-0.3,0-0.5-0.1c-0.2,0-0.3-0.1-0.4-0.2l0.2-0.4c0.1,0.1,0.2,0.1,0.3,0.2s0.3,0.1,0.4,0.1
				c0.1,0,0.2,0,0.2,0c0.1,0,0.1,0,0.1-0.1c0,0,0-0.1,0-0.1c0-0.1,0-0.1-0.1-0.1c0,0-0.1-0.1-0.2-0.1c-0.1,0-0.2,0-0.3-0.1
				s-0.2,0-0.3-0.1c-0.1,0-0.2-0.1-0.3-0.1s-0.1-0.1-0.2-0.2c0-0.1-0.1-0.2-0.1-0.3c0-0.1,0-0.2,0.1-0.3s0.2-0.2,0.3-0.2
				c0.1-0.1,0.3-0.1,0.5-0.1c0.1,0,0.3,0,0.4,0c0.1,0,0.3,0.1,0.4,0.1l-0.2,0.4c-0.1-0.1-0.2-0.1-0.3-0.1c-0.1,0-0.2,0-0.3,0
				c-0.1,0-0.2,0-0.2,0c-0.1,0-0.1,0-0.1,0.1c0,0,0,0.1,0,0.1c0,0.1,0,0.1,0.1,0.1c0,0,0.1,0.1,0.2,0.1s0.2,0,0.3,0.1
				c0.1,0,0.2,0,0.3,0.1c0.1,0,0.2,0.1,0.2,0.1c0.1,0,0.1,0.1,0.2,0.2c0,0.1,0.1,0.2,0.1,0.3c0,0.1,0,0.2-0.1,0.3s-0.2,0.2-0.3,0.2
				C126.1,22.2,125.9,22.2,125.7,22.2z"/>
			<path class="st1" d="M129.3,22.2v-1.7h-0.7v-0.4h1.9v0.4h-0.7v1.7H129.3z"/>
			<path class="st1" d="M131.8,22.2h-0.5v-2h0.5V22.2z M132.8,21.3h-1.1v-0.4h1.1V21.3z M132.8,20.1h0.5v2h-0.5V20.1z"/>
			<path class="st1" d="M134.8,21.8h1.2v0.4h-1.7v-2h1.7v0.4h-1.2V21.8z M134.8,20.9h1.1v0.4h-1.1V20.9z"/>
			<path class="st1" d="M139,22.2c-0.2,0-0.3,0-0.5-0.1c-0.2,0-0.3-0.1-0.4-0.2l0.2-0.4c0.1,0.1,0.2,0.1,0.3,0.2s0.3,0.1,0.4,0.1
				c0.1,0,0.2,0,0.2,0c0.1,0,0.1,0,0.1-0.1c0,0,0-0.1,0-0.1c0-0.1,0-0.1-0.1-0.1c0,0-0.1-0.1-0.2-0.1c-0.1,0-0.2,0-0.3-0.1
				s-0.2,0-0.3-0.1c-0.1,0-0.2-0.1-0.3-0.1s-0.1-0.1-0.2-0.2c0-0.1-0.1-0.2-0.1-0.3c0-0.1,0-0.2,0.1-0.3s0.2-0.2,0.3-0.2
				c0.1-0.1,0.3-0.1,0.5-0.1c0.1,0,0.3,0,0.4,0c0.1,0,0.3,0.1,0.4,0.1l-0.2,0.4c-0.1-0.1-0.2-0.1-0.3-0.1c-0.1,0-0.2,0-0.3,0
				c-0.1,0-0.2,0-0.2,0c-0.1,0-0.1,0-0.1,0.1c0,0,0,0.1,0,0.1c0,0.1,0,0.1,0.1,0.1c0,0,0.1,0.1,0.2,0.1s0.2,0,0.3,0.1
				c0.1,0,0.2,0,0.3,0.1c0.1,0,0.2,0.1,0.2,0.1c0.1,0,0.1,0.1,0.2,0.2c0,0.1,0.1,0.2,0.1,0.3c0,0.1,0,0.2-0.1,0.3s-0.2,0.2-0.3,0.2
				C139.4,22.2,139.2,22.2,139,22.2z"/>
			<path class="st1" d="M141.3,21.8h1.2v0.4h-1.7v-2h1.7v0.4h-1.2V21.8z M141.2,20.9h1.1v0.4h-1.1V20.9z"/>
			<path class="st1" d="M143.1,22.2l1-2h0.5l1,2H145l-0.8-1.8h0.2l-0.8,1.8H143.1z M143.6,21.7l0.1-0.4h1.1l0.1,0.4H143.6z"/>
		</g>
	</g>
	<g>
		<g>
			<path class="st1" d="M75.6,14.6c-0.8,0-1.5-0.1-2.2-0.3c-0.7-0.2-1.3-0.4-1.7-0.7l0.8-1.6c0.4,0.3,0.9,0.5,1.5,0.7
				c0.6,0.2,1.1,0.3,1.7,0.3c0.4,0,0.8,0,1.1-0.1c0.3-0.1,0.5-0.2,0.6-0.3c0.1-0.1,0.2-0.3,0.2-0.5c0-0.2-0.1-0.4-0.3-0.6
				c-0.2-0.1-0.5-0.3-0.8-0.3s-0.7-0.2-1.1-0.3c-0.4-0.1-0.8-0.2-1.2-0.3c-0.4-0.1-0.8-0.3-1.1-0.5c-0.3-0.2-0.6-0.4-0.8-0.8
				C72,9,71.9,8.6,71.9,8.2c0-0.5,0.1-1,0.4-1.4s0.7-0.8,1.3-1S75,5.4,76,5.4c0.6,0,1.2,0.1,1.8,0.2c0.6,0.1,1.1,0.3,1.6,0.6
				l-0.7,1.6c-0.4-0.2-0.9-0.4-1.3-0.5C76.8,7.1,76.4,7,75.9,7c-0.4,0-0.8,0-1.1,0.1c-0.3,0.1-0.5,0.2-0.6,0.4s-0.2,0.3-0.2,0.5
				c0,0.2,0.1,0.4,0.3,0.6c0.2,0.1,0.5,0.3,0.8,0.3c0.3,0.1,0.7,0.2,1.1,0.2c0.4,0.1,0.8,0.2,1.2,0.3c0.4,0.1,0.8,0.3,1.1,0.5
				c0.3,0.2,0.6,0.4,0.8,0.7s0.3,0.7,0.3,1.2c0,0.5-0.2,1-0.5,1.4s-0.8,0.8-1.4,1S76.6,14.6,75.6,14.6z"/>
			<path class="st1" d="M85.6,12.8h5.3v1.7h-7.5V5.5h7.3v1.7h-5.1V12.8z M85.4,9.1h4.7v1.6h-4.7V9.1z"/>
			<path class="st1" d="M93.4,14.5l4.3-8.9h2.2l4.3,8.9H102l-3.6-7.9h0.9l-3.6,7.9H93.4z M95.6,12.5l0.6-1.6h5l0.6,1.6H95.6z"/>
			<path class="st1" d="M110.6,14.6c-0.8,0-1.5-0.1-2.2-0.3c-0.7-0.2-1.3-0.4-1.7-0.7l0.8-1.6c0.4,0.3,0.9,0.5,1.5,0.7
				c0.6,0.2,1.1,0.3,1.7,0.3c0.4,0,0.8,0,1.1-0.1c0.3-0.1,0.5-0.2,0.6-0.3c0.1-0.1,0.2-0.3,0.2-0.5c0-0.2-0.1-0.4-0.3-0.6
				c-0.2-0.1-0.5-0.3-0.8-0.3c-0.3-0.1-0.7-0.2-1.1-0.3c-0.4-0.1-0.8-0.2-1.2-0.3c-0.4-0.1-0.8-0.3-1.1-0.5
				c-0.3-0.2-0.6-0.4-0.8-0.8c-0.2-0.3-0.3-0.7-0.3-1.2c0-0.5,0.1-1,0.4-1.4s0.7-0.8,1.3-1s1.4-0.4,2.3-0.4c0.6,0,1.2,0.1,1.8,0.2
				c0.6,0.1,1.1,0.3,1.6,0.6l-0.7,1.6c-0.4-0.2-0.9-0.4-1.3-0.5c-0.5-0.1-0.9-0.2-1.3-0.2c-0.4,0-0.8,0-1.1,0.1
				c-0.3,0.1-0.5,0.2-0.6,0.4s-0.2,0.3-0.2,0.5c0,0.2,0.1,0.4,0.3,0.6c0.2,0.1,0.5,0.3,0.8,0.3c0.3,0.1,0.7,0.2,1.1,0.2
				c0.4,0.1,0.8,0.2,1.2,0.3c0.4,0.1,0.8,0.3,1.1,0.5c0.3,0.2,0.6,0.4,0.8,0.7s0.3,0.7,0.3,1.2c0,0.5-0.2,1-0.5,1.4s-0.8,0.8-1.4,1
				S111.5,14.6,110.6,14.6z"/>
			<path class="st1" d="M118.3,14.5V5.5h2.3v8.9H118.3z"/>
			<path class="st1" d="M124.9,14.5V5.5h4.4c1.1,0,2,0.2,2.8,0.6c0.8,0.4,1.4,0.9,1.9,1.6s0.7,1.5,0.7,2.4c0,0.9-0.2,1.7-0.7,2.3
				c-0.5,0.7-1.1,1.2-1.9,1.6c-0.8,0.4-1.7,0.6-2.8,0.6H124.9z M127.2,12.8h2c0.6,0,1.2-0.1,1.7-0.3c0.5-0.2,0.8-0.5,1.1-1
				c0.3-0.4,0.4-0.9,0.4-1.5c0-0.6-0.1-1.1-0.4-1.5c-0.3-0.4-0.6-0.7-1.1-1c-0.5-0.2-1-0.3-1.7-0.3h-2V12.8z"/>
			<path class="st1" d="M140.7,12.8h5.3v1.7h-7.5V5.5h7.3v1.7h-5.1V12.8z M140.5,9.1h4.7v1.6h-4.7V9.1z"/>
		</g>
	</g>
</g>
</svg>
