<?xml version="1.0" encoding="utf-8"?>
<!-- Generator: Adobe Illustrator 25.0.0, SVG Export Plug-In . SVG Version: 6.00 Build 0)  -->
<svg version="1.1" id="Layer_1" xmlns="http://www.w3.org/2000/svg" xmlns:xlink="http://www.w3.org/1999/xlink" x="0px" y="0px"
	 viewBox="0 0 160 30" style="enable-background:new 0 0 160 30;" xml:space="preserve">
<style type="text/css">
	.st0{fill:#3C50E0;}
	.st1{fill:#FFFFFF;}
	.st2{font-family:'LithosPro-Black';}
	.st3{font-size:15.2885px;}
</style>
<g>
	<g>
		<path class="st0" d="M23.9,27c-0.1,0-0.2,0-0.3,0h0.9L23.9,27z"/>
		<path class="st0" d="M73.9,18.8c-6.1,5.4-15.7,5.6-15.7,5.6c5.5-1.8,9-4.2,10.6-5.5l-6.3,0.1c-0.9,0.8-3.1,2.5-6.5,2.8
			c0,0,2.8-1,3.9-2.8L6.7,19.5L39.4,21h13.9c0,0-18.3,1.8-18.5,1.9c7.3,1,12.6,3.1,14.8,4.1h7.2c7.8,0,15.4-2.8,21.3-7.9l0.3-0.2
			L73.9,18.8z"/>
		<path class="st0" d="M56.4,15.4c-0.3,0-0.7,0-1.1-0.1c-1.5-0.1-2.9-0.5-4.1-1.3c-2.4-1.5-6.1-3.4-9.7-3.9
			c-6-0.8-31.3,1.2-31.3,1.2c12.4,0.2,25.9-0.1,29.5,4c-11.3,0.3-23.1,1-23.1,1c14-0.2,25.5,1,28.6,1.4c0.5,0.1,1.1,0.1,1.7,0.1
			h21.6C65.3,17.1,61.2,15.8,56.4,15.4z M46.8,15.3c0,0-0.9-2.5-7.6-4.2c0,0,7.4,0.2,11.4,4.2H46.8z"/>
		<path class="st0" d="M16.3,24.1c6.3-1,14.5,1.4,18.4,2.8h10.4c-1.9-0.7-10.7-4.2-25.7-4.9C10,21.5,1.3,26.1-0.1,26.9h27.6
			C22.9,24.6,16.3,24.1,16.3,24.1z"/>
		<g>
			<path class="st0" d="M36.4,8.4C35.6,5.3,32.8,3,29.5,3c-3.5,0-6.5,2.6-7.1,6C27.2,8.7,32.5,8.4,36.4,8.4z"/>
		</g>
	</g>
	<g>
		<g>
			<g>
				<path class="st1" d="M83.5,23.7c-0.2,0-0.3,0-0.5-0.1s-0.3-0.1-0.4-0.2l0.1-0.1c0.1,0.1,0.2,0.2,0.3,0.2
					c0.1,0.1,0.3,0.1,0.5,0.1s0.3,0,0.4-0.1c0.1,0,0.2-0.1,0.2-0.2c0-0.1,0.1-0.2,0.1-0.2c0-0.1,0-0.2-0.1-0.2
					c-0.1-0.1-0.1-0.1-0.2-0.1c-0.1,0-0.2-0.1-0.3-0.1c-0.1,0-0.2-0.1-0.3-0.1c-0.1,0-0.2-0.1-0.3-0.1s-0.2-0.1-0.2-0.2
					c-0.1-0.1-0.1-0.2-0.1-0.3c0-0.1,0-0.2,0.1-0.3s0.2-0.2,0.3-0.2c0.1-0.1,0.3-0.1,0.5-0.1c0.1,0,0.3,0,0.4,0.1s0.2,0.1,0.3,0.2
					l-0.1,0.1c-0.1-0.1-0.2-0.1-0.3-0.2s-0.2,0-0.3,0c-0.2,0-0.3,0-0.4,0.1c-0.1,0-0.2,0.1-0.2,0.2c0,0.1-0.1,0.2-0.1,0.2
					c0,0.1,0,0.2,0.1,0.2c0.1,0.1,0.1,0.1,0.2,0.1c0.1,0,0.2,0.1,0.3,0.1c0.1,0,0.2,0.1,0.3,0.1c0.1,0,0.2,0.1,0.3,0.1
					s0.2,0.1,0.2,0.2c0.1,0.1,0.1,0.2,0.1,0.3c0,0.1,0,0.2-0.1,0.3c-0.1,0.1-0.2,0.2-0.3,0.2C83.9,23.6,83.7,23.7,83.5,23.7z"/>
				<path class="st1" d="M86,23.5h1.5v0.2h-1.7v-2.4h1.6v0.2H86V23.5z M86,22.4h1.3v0.2H86V22.4z"/>
				<path class="st1" d="M88.6,23.7l1.1-2.4h0.2l1.1,2.4h-0.2l-1-2.3h0.1l-1,2.3H88.6z M89,23l0.1-0.1h1.4l0.1,0.1H89z"/>
				<path class="st1" d="M94.5,23.7v-2.3h-0.9v-0.2h1.9v0.2h-0.9v2.3H94.5z"/>
				<path class="st1" d="M97.1,23.7h-0.2v-2.4h0.2V23.7z M98.7,22.5H97v-0.2h1.7V22.5z M98.7,21.2h0.2v2.4h-0.2V21.2z"/>
				<path class="st1" d="M100.7,23.5h1.5v0.2h-1.7v-2.4h1.6v0.2h-1.4V23.5z M100.7,22.4h1.3v0.2h-1.3V22.4z"/>
				<path class="st1" d="M106,23.7l-0.8-2.4h0.2l0.8,2.3h-0.1l0.8-2.3h0.2l0.8,2.3h-0.1l0.8-2.3h0.2l-0.8,2.4h-0.2l-0.8-2.2h0
					l-0.8,2.2H106z"/>
				<path class="st1" d="M111.2,23.7c-0.2,0-0.3,0-0.5-0.1s-0.3-0.1-0.4-0.3s-0.2-0.2-0.3-0.4c-0.1-0.1-0.1-0.3-0.1-0.5
					s0-0.3,0.1-0.5c0.1-0.1,0.1-0.3,0.3-0.4c0.1-0.1,0.2-0.2,0.4-0.3c0.2-0.1,0.3-0.1,0.5-0.1c0.2,0,0.3,0,0.5,0.1
					c0.2,0.1,0.3,0.1,0.4,0.3c0.1,0.1,0.2,0.2,0.3,0.4c0.1,0.1,0.1,0.3,0.1,0.5c0,0.2,0,0.3-0.1,0.5c-0.1,0.1-0.2,0.3-0.3,0.4
					c-0.1,0.1-0.2,0.2-0.4,0.3S111.3,23.7,111.2,23.7z M111.2,23.5c0.2,0,0.3,0,0.4-0.1c0.1-0.1,0.2-0.1,0.3-0.2
					c0.1-0.1,0.2-0.2,0.2-0.3s0.1-0.3,0.1-0.4c0-0.2,0-0.3-0.1-0.4c-0.1-0.1-0.1-0.2-0.2-0.3c-0.1-0.1-0.2-0.2-0.3-0.2
					c-0.1-0.1-0.3-0.1-0.4-0.1c-0.2,0-0.3,0-0.4,0.1c-0.1,0.1-0.2,0.1-0.3,0.2s-0.2,0.2-0.2,0.3c-0.1,0.1-0.1,0.3-0.1,0.4
					c0,0.2,0,0.3,0.1,0.4c0.1,0.1,0.1,0.2,0.2,0.3s0.2,0.2,0.3,0.2C110.9,23.5,111,23.5,111.2,23.5z"/>
				<path class="st1" d="M113.9,23.7v-2.4h0.9c0.2,0,0.4,0,0.5,0.1c0.1,0.1,0.3,0.2,0.3,0.3s0.1,0.3,0.1,0.4c0,0.2,0,0.3-0.1,0.4
					s-0.2,0.2-0.3,0.3c-0.1,0.1-0.3,0.1-0.5,0.1H114l0.1-0.1v0.9H113.9z M114.1,22.8L114.1,22.8l0.7-0.1c0.3,0,0.5-0.1,0.6-0.2
					s0.2-0.3,0.2-0.5c0-0.2-0.1-0.4-0.2-0.5s-0.3-0.2-0.6-0.2H114l0.1-0.1V22.8z M115.6,23.7l-0.6-0.9h0.2l0.6,0.9H115.6z"/>
				<path class="st1" d="M117.2,23.7v-2.4h0.2v2.3h1.4v0.2H117.2z"/>
				<path class="st1" d="M120.1,23.7v-2.4h1c0.3,0,0.5,0.1,0.7,0.2s0.3,0.2,0.5,0.4c0.1,0.2,0.2,0.4,0.2,0.6c0,0.2-0.1,0.4-0.2,0.6
					c-0.1,0.2-0.3,0.3-0.5,0.4s-0.4,0.2-0.7,0.2H120.1z M120.3,23.5h0.8c0.2,0,0.4,0,0.6-0.1s0.3-0.2,0.4-0.4
					c0.1-0.2,0.1-0.3,0.1-0.5c0-0.2,0-0.4-0.1-0.5c-0.1-0.2-0.2-0.3-0.4-0.4s-0.4-0.1-0.6-0.1h-0.8V23.5z"/>
				<path class="st1" d="M125.6,23.7v-2.4h1c0.3,0,0.5,0.1,0.7,0.2s0.3,0.2,0.5,0.4c0.1,0.2,0.2,0.4,0.2,0.6c0,0.2-0.1,0.4-0.2,0.6
					c-0.1,0.2-0.3,0.3-0.5,0.4s-0.4,0.2-0.7,0.2H125.6z M125.7,23.5h0.8c0.2,0,0.4,0,0.6-0.1s0.3-0.2,0.4-0.4
					c0.1-0.2,0.1-0.3,0.1-0.5c0-0.2,0-0.4-0.1-0.5c-0.1-0.2-0.2-0.3-0.4-0.4s-0.4-0.1-0.6-0.1h-0.8V23.5z"/>
				<path class="st1" d="M129.3,23.7v-2.4h0.2v2.4H129.3z"/>
				<path class="st1" d="M131.3,23.7h-0.2v-2.4h1.6v0.2h-1.4V23.7z M131.3,22.4h1.3v0.2h-1.3V22.4z"/>
				<path class="st1" d="M134.4,23.7h-0.2v-2.4h1.6v0.2h-1.4V23.7z M134.4,22.4h1.3v0.2h-1.3V22.4z"/>
				<path class="st1" d="M137.4,23.5h1.5v0.2h-1.7v-2.4h1.6v0.2h-1.4V23.5z M137.4,22.4h1.3v0.2h-1.3V22.4z"/>
				<path class="st1" d="M140.4,23.7v-2.4h0.9c0.2,0,0.4,0,0.5,0.1c0.1,0.1,0.3,0.2,0.3,0.3s0.1,0.3,0.1,0.4c0,0.2,0,0.3-0.1,0.4
					s-0.2,0.2-0.3,0.3c-0.1,0.1-0.3,0.1-0.5,0.1h-0.8l0.1-0.1v0.9H140.4z M140.6,22.8L140.6,22.8l0.7-0.1c0.3,0,0.5-0.1,0.6-0.2
					s0.2-0.3,0.2-0.5c0-0.2-0.1-0.4-0.2-0.5s-0.3-0.2-0.6-0.2h-0.8l0.1-0.1V22.8z M142.1,23.7l-0.6-0.9h0.2l0.6,0.9H142.1z"/>
				<path class="st1" d="M143.9,23.5h1.5v0.2h-1.7v-2.4h1.6v0.2h-1.4V23.5z M143.9,22.4h1.3v0.2h-1.3V22.4z"/>
				<path class="st1" d="M146.9,23.7v-2.4h0.1l1.7,2.2h-0.1v-2.2h0.2v2.4h-0.1l-1.7-2.2h0.1v2.2H146.9z"/>
				<path class="st1" d="M151.1,23.7v-2.3h-0.9v-0.2h1.9v0.2h-0.9v2.3H151.1z"/>
				<path class="st1" d="M153.4,23.7v-2.4h0.2v2.3h1.4v0.2H153.4z"/>
				<path class="st1" d="M156.9,23.7v-0.9l0,0.1l-1-1.7h0.2l0.9,1.5h-0.1l0.9-1.5h0.2l-1,1.7l0-0.1v0.9H156.9z"/>
			</g>
		</g>
		<text transform="matrix(1 0 0 1 81.093 18.4424)" class="st1 st2 st3">NAUTICA</text>
	</g>
</g>
</svg>
