<?xml version="1.0" encoding="utf-8"?>
<!-- Generator: Adobe Illustrator 25.0.0, SVG Export Plug-In . SVG Version: 6.00 Build 0)  -->
<svg version="1.1" id="Layer_1" xmlns="http://www.w3.org/2000/svg" xmlns:xlink="http://www.w3.org/1999/xlink" x="0px" y="0px"
	 viewBox="0 0 333 96" style="enable-background:new 0 0 333 96;" xml:space="preserve">
<style type="text/css">
	.st0{fill:#6E5FFF;}
	.st1{fill:#FFFFFF;}
	.st2{font-family:'LithosPro-Black';}
	.st3{font-size:30.9085px;}
</style>
<g>
	<g>
		<path class="st0" d="M50.6,72.1c-0.2,0-0.4,0-0.7,0h1.8L50.6,72.1z"/>
		<path class="st0" d="M151.7,55.6C139.3,66.5,120,67,120,67c11-3.6,18.1-8.5,21.4-11.2l-12.7,0.1c-1.9,1.7-6.3,5-13.2,5.7
			c0,0,5.7-2,7.8-5.6L16,56.9L82,60h28.1c0,0-36.9,3.7-37.5,3.9c14.8,2,25.5,6.3,29.8,8.2H117c15.8,0,31.1-5.7,43-16.1l0.6-0.5
			L151.7,55.6z"/>
		<path class="st0" d="M116.2,48.7c-0.7,0-1.4-0.1-2.2-0.1c-2.9-0.1-5.8-1-8.3-2.6c-4.8-3-12.4-6.9-19.6-7.8
			c-12.2-1.6-63.2,2.5-63.2,2.5c25,0.4,52.4-0.3,59.6,8c-22.8,0.7-46.8,2.1-46.8,2.1c28.3-0.5,51.5,2,57.7,2.8
			c1.1,0.1,2.2,0.2,3.3,0.2h43.6C134.4,52,126,49.4,116.2,48.7z M97,48.5c0,0-1.8-5.1-15.4-8.6c0,0,14.9,0.4,23.1,8.6H97z"/>
		<path class="st0" d="M35.3,66.2c12.7-2,29.2,2.9,37.3,5.7h21.1c-3.7-1.4-21.7-8.5-52-9.9C22.5,61.1,5,70.2,2.1,71.8h55.7
			C48.5,67.3,35.3,66.2,35.3,66.2z"/>
		<g>
			<path class="st0" d="M75.9,34.6c-1.6-6.3-7.3-10.9-14-10.9c-7.2,0-13.1,5.2-14.3,12.1C57.3,35.1,68,34.6,75.9,34.6z"/>
		</g>
	</g>
	<g>
		<g>
			<g>
				<path class="st1" d="M171.1,70.6c-0.4,0-0.7-0.1-1-0.2c-0.3-0.1-0.6-0.3-0.8-0.5l0.2-0.3c0.2,0.2,0.4,0.3,0.7,0.4
					c0.3,0.1,0.6,0.2,0.9,0.2c0.3,0,0.6,0,0.8-0.1s0.4-0.2,0.5-0.3c0.1-0.1,0.2-0.3,0.2-0.5c0-0.2-0.1-0.4-0.2-0.5
					c-0.1-0.1-0.3-0.2-0.4-0.3c-0.2-0.1-0.4-0.1-0.6-0.2c-0.2-0.1-0.4-0.1-0.6-0.2c-0.2-0.1-0.4-0.1-0.6-0.2
					c-0.2-0.1-0.3-0.2-0.4-0.4s-0.2-0.4-0.2-0.6c0-0.2,0.1-0.4,0.2-0.6s0.3-0.4,0.6-0.5s0.6-0.2,1-0.2c0.3,0,0.5,0,0.8,0.1
					c0.3,0.1,0.5,0.2,0.7,0.3l-0.1,0.3c-0.2-0.1-0.4-0.2-0.7-0.3c-0.2-0.1-0.5-0.1-0.7-0.1c-0.3,0-0.6,0-0.8,0.1
					c-0.2,0.1-0.4,0.2-0.5,0.4s-0.1,0.3-0.1,0.5c0,0.2,0.1,0.4,0.2,0.5c0.1,0.1,0.3,0.2,0.4,0.3c0.2,0.1,0.4,0.1,0.6,0.2
					c0.2,0.1,0.4,0.1,0.6,0.2c0.2,0.1,0.4,0.1,0.6,0.2c0.2,0.1,0.3,0.2,0.4,0.4c0.1,0.2,0.2,0.4,0.2,0.6c0,0.2-0.1,0.4-0.2,0.6
					c-0.1,0.2-0.3,0.4-0.6,0.5C171.8,70.5,171.5,70.6,171.1,70.6z"/>
				<path class="st1" d="M176.2,70.2h3v0.3h-3.4v-4.9h3.3V66h-2.9V70.2z M176.1,67.9h2.6v0.3h-2.6V67.9z"/>
				<path class="st1" d="M181.4,70.6l2.2-4.9h0.4l2.2,4.9h-0.4l-2.1-4.7h0.2l-2.1,4.7H181.4z M182.2,69.2l0.1-0.3h2.9l0.1,0.3H182.2
					z"/>
				<path class="st1" d="M193.3,70.6V66h-1.8v-0.3h3.9V66h-1.8v4.6H193.3z"/>
				<path class="st1" d="M198.4,70.6h-0.4v-4.9h0.4V70.6z M201.7,68.2h-3.3v-0.3h3.3V68.2z M201.7,65.7h0.4v4.9h-0.4V65.7z"/>
				<path class="st1" d="M205.9,70.2h3v0.3h-3.4v-4.9h3.3V66h-2.9V70.2z M205.8,67.9h2.6v0.3h-2.6V67.9z"/>
				<path class="st1" d="M216.5,70.6l-1.7-4.9h0.4l1.6,4.7h-0.2l1.6-4.7h0.3l1.6,4.7H220l1.6-4.7h0.3l-1.7,4.9h-0.4l-1.6-4.5h0.1
					l-1.6,4.5H216.5z"/>
				<path class="st1" d="M226.9,70.6c-0.4,0-0.7-0.1-1-0.2c-0.3-0.1-0.6-0.3-0.8-0.5c-0.2-0.2-0.4-0.5-0.5-0.8
					c-0.1-0.3-0.2-0.6-0.2-1s0.1-0.7,0.2-1c0.1-0.3,0.3-0.6,0.5-0.8c0.2-0.2,0.5-0.4,0.8-0.5s0.6-0.2,1-0.2c0.4,0,0.7,0.1,1,0.2
					c0.3,0.1,0.6,0.3,0.8,0.5c0.2,0.2,0.4,0.5,0.5,0.8s0.2,0.6,0.2,1s-0.1,0.7-0.2,1c-0.1,0.3-0.3,0.6-0.5,0.8
					c-0.2,0.2-0.5,0.4-0.8,0.5C227.6,70.5,227.3,70.6,226.9,70.6z M226.9,70.3c0.3,0,0.6-0.1,0.9-0.2c0.3-0.1,0.5-0.3,0.7-0.5
					s0.3-0.4,0.5-0.7c0.1-0.3,0.2-0.5,0.2-0.9c0-0.3-0.1-0.6-0.2-0.9c-0.1-0.3-0.3-0.5-0.5-0.7s-0.4-0.3-0.7-0.5
					c-0.3-0.1-0.6-0.2-0.9-0.2s-0.6,0.1-0.9,0.2c-0.3,0.1-0.5,0.3-0.7,0.5c-0.2,0.2-0.4,0.4-0.5,0.7c-0.1,0.3-0.2,0.5-0.2,0.9
					c0,0.3,0.1,0.6,0.2,0.9c0.1,0.3,0.3,0.5,0.5,0.7c0.2,0.2,0.4,0.3,0.7,0.5C226.3,70.2,226.6,70.3,226.9,70.3z"/>
				<path class="st1" d="M232.4,70.6v-4.9h1.8c0.4,0,0.8,0.1,1.1,0.2c0.3,0.1,0.5,0.3,0.7,0.6s0.2,0.5,0.2,0.9
					c0,0.3-0.1,0.6-0.2,0.9s-0.4,0.4-0.7,0.6c-0.3,0.1-0.6,0.2-1.1,0.2h-1.6l0.2-0.2v1.8H232.4z M232.8,68.8l-0.2-0.2h1.6
					c0.5,0,0.9-0.1,1.2-0.3c0.3-0.2,0.4-0.6,0.4-1c0-0.4-0.1-0.7-0.4-1c-0.3-0.2-0.7-0.3-1.2-0.3h-1.6l0.2-0.2V68.8z M235.8,70.6
					l-1.3-1.8h0.4l1.3,1.8H235.8z"/>
				<path class="st1" d="M239.2,70.6v-4.9h0.4v4.6h2.8v0.3H239.2z"/>
				<path class="st1" d="M245,70.6v-4.9h1.9c0.5,0,1,0.1,1.4,0.3s0.7,0.5,0.9,0.9c0.2,0.4,0.3,0.8,0.3,1.3s-0.1,0.9-0.3,1.3
					c-0.2,0.4-0.5,0.7-0.9,0.9c-0.4,0.2-0.8,0.3-1.4,0.3H245z M245.4,70.2h1.5c0.5,0,0.9-0.1,1.2-0.3c0.3-0.2,0.6-0.4,0.8-0.8
					c0.2-0.3,0.3-0.7,0.3-1.1s-0.1-0.8-0.3-1.1c-0.2-0.3-0.4-0.6-0.8-0.8c-0.3-0.2-0.7-0.3-1.2-0.3h-1.5V70.2z"/>
				<path class="st1" d="M256.1,70.6v-4.9h1.9c0.5,0,1,0.1,1.4,0.3s0.7,0.5,0.9,0.9c0.2,0.4,0.3,0.8,0.3,1.3s-0.1,0.9-0.3,1.3
					c-0.2,0.4-0.5,0.7-0.9,0.9c-0.4,0.2-0.8,0.3-1.4,0.3H256.1z M256.4,70.2h1.5c0.5,0,0.9-0.1,1.2-0.3c0.3-0.2,0.6-0.4,0.8-0.8
					c0.2-0.3,0.3-0.7,0.3-1.1s-0.1-0.8-0.3-1.1c-0.2-0.3-0.4-0.6-0.8-0.8c-0.3-0.2-0.7-0.3-1.2-0.3h-1.5V70.2z"/>
				<path class="st1" d="M263.6,70.6v-4.9h0.4v4.9H263.6z"/>
				<path class="st1" d="M267.7,70.6h-0.4v-4.9h3.3V66h-2.9V70.6z M267.7,68.1h2.6v0.3h-2.6V68.1z"/>
				<path class="st1" d="M273.9,70.6h-0.4v-4.9h3.3V66h-2.9V70.6z M273.8,68.1h2.6v0.3h-2.6V68.1z"/>
				<path class="st1" d="M280,70.2h3v0.3h-3.4v-4.9h3.3V66H280V70.2z M280,67.9h2.6v0.3H280V67.9z"/>
				<path class="st1" d="M286.1,70.6v-4.9h1.8c0.4,0,0.8,0.1,1.1,0.2c0.3,0.1,0.5,0.3,0.7,0.6s0.2,0.5,0.2,0.9
					c0,0.3-0.1,0.6-0.2,0.9s-0.4,0.4-0.7,0.6c-0.3,0.1-0.6,0.2-1.1,0.2h-1.6l0.2-0.2v1.8H286.1z M286.4,68.8l-0.2-0.2h1.6
					c0.5,0,0.9-0.1,1.2-0.3c0.3-0.2,0.4-0.6,0.4-1c0-0.4-0.1-0.7-0.4-1c-0.3-0.2-0.7-0.3-1.2-0.3h-1.6l0.2-0.2V68.8z M289.5,70.6
					l-1.3-1.8h0.4l1.3,1.8H289.5z"/>
				<path class="st1" d="M293.2,70.2h3v0.3h-3.4v-4.9h3.3V66h-2.9V70.2z M293.2,67.9h2.6v0.3h-2.6V67.9z"/>
				<path class="st1" d="M299.3,70.6v-4.9h0.3l3.5,4.4h-0.2v-4.4h0.4v4.9h-0.3l-3.5-4.4h0.2v4.4H299.3z"/>
				<path class="st1" d="M307.6,70.6V66h-1.8v-0.3h3.9V66H308v4.6H307.6z"/>
				<path class="st1" d="M312.4,70.6v-4.9h0.4v4.6h2.8v0.3H312.4z"/>
				<path class="st1" d="M319.3,70.6v-1.8l0.1,0.2l-2.1-3.3h0.4l1.9,3h-0.2l1.9-3h0.4l-2.1,3.3l0.1-0.2v1.8H319.3z"/>
			</g>
		</g>
		<text transform="matrix(1 0 0 1 166.1567 60.0125)" class="st1 st2 st3">NAUTICA</text>
	</g>
</g>
</svg>
