<?xml version="1.0" encoding="utf-8"?>
<!-- Generator: Adobe Illustrator 25.0.0, SVG Export Plug-In . SVG Version: 6.00 Build 0)  -->
<svg version="1.1" id="Layer_1" xmlns="http://www.w3.org/2000/svg" xmlns:xlink="http://www.w3.org/1999/xlink" x="0px" y="0px"
	 viewBox="0 0 200 52" style="enable-background:new 0 0 200 52;" xml:space="preserve">
<style type="text/css">
	.st0{fill:url(#SVGID_1_);}
	.st1{fill:url(#SVGID_2_);}
	.st2{fill:url(#SVGID_3_);}
	.st3{fill:url(#SVGID_4_);}
	.st4{fill:#FFFFFF;}
</style>
<g>
	<g>
		<g>
			<linearGradient id="SVGID_1_" gradientUnits="userSpaceOnUse" x1="-5.532734e-04" y1="41.869" x2="83.849" y2="41.869">
				<stop  offset="0" style="stop-color:#233593"/>
				<stop  offset="0.4727" style="stop-color:#4957D7"/>
				<stop  offset="0.8909" style="stop-color:#5465FF"/>
				<stop  offset="1" style="stop-color:#6A67FF"/>
			</linearGradient>
			<path class="st0" d="M0,37.8c0,0,20.4-6.9,44,1.8c23.6,8.6,39.9-1,39.9-1s-15.4,17.7-45.3,5.7C16.4,35.5,0,37.8,0,37.8z"/>
			<linearGradient id="SVGID_2_" gradientUnits="userSpaceOnUse" x1="-5.532734e-04" y1="45.8741" x2="37.0225" y2="45.8741">
				<stop  offset="0" style="stop-color:#233593"/>
				<stop  offset="0.4727" style="stop-color:#4957D7"/>
				<stop  offset="0.8909" style="stop-color:#5465FF"/>
				<stop  offset="1" style="stop-color:#6A67FF"/>
			</linearGradient>
			<path class="st1" d="M0,41.1C3.6,39.2,27.1,37,37,52C37.1,51.4,11.6,40.9,0,41.1z"/>
		</g>
		<linearGradient id="SVGID_3_" gradientUnits="userSpaceOnUse" x1="10.4924" y1="32.1637" x2="83.849" y2="32.1637">
			<stop  offset="0" style="stop-color:#233593"/>
			<stop  offset="0.4727" style="stop-color:#4957D7"/>
			<stop  offset="0.8909" style="stop-color:#5465FF"/>
			<stop  offset="1" style="stop-color:#6A67FF"/>
		</linearGradient>
		<path class="st2" d="M16.8,25.4l4.3,0.4c1,0.1,1.7,0.9,1.8,1.9c-1.8,0.9-3.5,2-4.9,3.2l-1.4,0.3c-2.1,0.4-4.2,1.2-6.1,2.3
			c2.5-0.3,5.4-0.5,8.6-0.5c2.9,0,5.8,0.2,8.6,0.5c12.9-0.6,29.1,0,45.9-0.2c-0.7,2.6-3.3,5-6,7.5c0.2,0,0.4,0,0.6-0.1
			c6.6-2.2,12.5-8.3,15.8-13l-25.6-0.3H47.7c-0.9-0.5-3.2-1.8-5-2c0,0,1.4,1.2,1.1,2H32.5c0,0,5.7-3.4,19.7-3.2
			c-3.1-0.7-7-1-11.3-0.8l0,0H13.3C14.2,24.6,15.5,25.3,16.8,25.4z"/>
		<linearGradient id="SVGID_4_" gradientUnits="userSpaceOnUse" x1="12.2681" y1="12.3243" x2="75.9228" y2="12.3243">
			<stop  offset="0" style="stop-color:#233593"/>
			<stop  offset="0.4727" style="stop-color:#4957D7"/>
			<stop  offset="0.8909" style="stop-color:#5465FF"/>
			<stop  offset="1" style="stop-color:#6A67FF"/>
		</linearGradient>
		<path class="st3" d="M16,20.9C21,10.4,31.4,3.1,43.4,3.1c13.5,0,25,9.2,29,22l3.5,0C71.8,10.3,58.7-0.4,43.4-0.4
			c-13.9,0-25.8,8.8-31.1,21.4H16z"/>
	</g>
</g>
<rect x="88.7" y="33" class="st4" width="111.1" height="0.9"/>
<g>
	<g>
		<path class="st4" d="M91.9,29.8h-2.8v-8.6h2.8V29.8z M94.7,26.6h-2.9v-2.4h2.9V26.6z M94.5,21.1h2.8v8.6h-2.8V21.1z"/>
		<path class="st4" d="M97.7,29.8l3.6-8.6h2.7l3.6,8.6h-2.9l-2.7-7.2h1.1l-2.7,7.2H97.7z M99.8,28.3l0.7-2.1h3.8l0.7,2.1H99.8z"/>
		<path class="st4" d="M108,29.8v-8.6h4c0.8,0,1.4,0.1,2,0.4c0.6,0.3,1,0.6,1.3,1.1c0.3,0.5,0.5,1.1,0.5,1.7s-0.2,1.2-0.5,1.7
			c-0.3,0.5-0.7,0.8-1.3,1.1c-0.6,0.3-1.2,0.4-2,0.4h-2.4l1.2-1.2v3.4H108z M110.8,26.7l-1.2-1.3h2.2c0.4,0,0.7-0.1,0.9-0.3
			c0.2-0.2,0.3-0.4,0.3-0.7c0-0.3-0.1-0.6-0.3-0.7c-0.2-0.2-0.5-0.3-0.9-0.3h-2.2l1.2-1.3V26.7z M112.9,29.8l-2-3.1h2.9l2,3.1H112.9
			z"/>
		<path class="st4" d="M116.8,29.8v-8.6h4.4c1.1,0,2,0.2,2.5,0.6c0.5,0.4,0.8,1,0.8,1.6c0,0.4-0.1,0.8-0.3,1.2
			c-0.2,0.3-0.6,0.6-1,0.8s-1,0.3-1.6,0.3l0.2-0.7c0.6,0,1.2,0.1,1.7,0.3c0.5,0.2,0.8,0.5,1.1,0.8s0.4,0.8,0.4,1.3
			c0,0.7-0.3,1.3-0.9,1.8s-1.5,0.6-2.6,0.6H116.8z M119.5,27.7h1.7c0.3,0,0.5-0.1,0.7-0.2c0.2-0.1,0.2-0.3,0.2-0.5
			c0-0.2-0.1-0.4-0.2-0.5c-0.2-0.1-0.4-0.2-0.7-0.2h-1.9v-1.9h1.5c0.3,0,0.5-0.1,0.7-0.2s0.2-0.3,0.2-0.5c0-0.2-0.1-0.4-0.2-0.5
			c-0.1-0.1-0.4-0.2-0.7-0.2h-1.3V27.7z"/>
		<path class="st4" d="M130.1,30c-0.7,0-1.3-0.1-1.8-0.3s-1.1-0.5-1.5-0.9c-0.4-0.4-0.7-0.9-1-1.4c-0.2-0.6-0.3-1.2-0.3-1.8
			c0-0.7,0.1-1.3,0.3-1.8s0.6-1,1-1.4s0.9-0.7,1.5-0.9c0.6-0.2,1.2-0.3,1.8-0.3c0.7,0,1.3,0.1,1.9,0.3c0.6,0.2,1.1,0.5,1.5,0.9
			c0.4,0.4,0.7,0.9,1,1.4s0.3,1.1,0.3,1.8c0,0.6-0.1,1.2-0.3,1.8c-0.2,0.5-0.6,1-1,1.4c-0.4,0.4-0.9,0.7-1.5,0.9S130.8,30,130.1,30z
			 M130.1,27.6c0.3,0,0.5,0,0.7-0.1c0.2-0.1,0.4-0.2,0.6-0.4c0.2-0.2,0.3-0.4,0.4-0.7s0.1-0.6,0.1-0.9s0-0.6-0.1-0.9
			c-0.1-0.3-0.2-0.5-0.4-0.7s-0.4-0.3-0.6-0.4c-0.2-0.1-0.5-0.1-0.7-0.1c-0.3,0-0.5,0-0.7,0.1c-0.2,0.1-0.4,0.2-0.6,0.4
			c-0.2,0.2-0.3,0.4-0.4,0.7c-0.1,0.3-0.1,0.6-0.1,0.9s0,0.6,0.1,0.9s0.2,0.5,0.4,0.7c0.2,0.2,0.4,0.3,0.6,0.4
			C129.7,27.6,129.9,27.6,130.1,27.6z"/>
		<path class="st4" d="M135.8,29.8v-8.6h4c0.8,0,1.4,0.1,2,0.4c0.6,0.3,1,0.6,1.3,1.1c0.3,0.5,0.5,1.1,0.5,1.7s-0.2,1.2-0.5,1.7
			c-0.3,0.5-0.7,0.8-1.3,1.1c-0.6,0.3-1.2,0.4-2,0.4h-2.4l1.2-1.2v3.4H135.8z M138.6,26.7l-1.2-1.3h2.2c0.4,0,0.7-0.1,0.9-0.3
			c0.2-0.2,0.3-0.4,0.3-0.7c0-0.3-0.1-0.6-0.3-0.7c-0.2-0.2-0.5-0.3-0.9-0.3h-2.2l1.2-1.3V26.7z M140.7,29.8l-2-3.1h2.9l2,3.1H140.7
			z"/>
		<path class="st4" d="M148.1,29.8v-8.6h2.3l3.3,5.6h-1.2l3.2-5.6h2.3l0,8.6h-2.5l0-4.6h0.4l-2.2,3.9h-1.2l-2.3-3.9h0.5v4.6H148.1z"
			/>
		<path class="st4" d="M158.4,29.8l3.6-8.6h2.7l3.6,8.6h-2.9l-2.7-7.2h1.1l-2.7,7.2H158.4z M160.5,28.3l0.7-2.1h3.8l0.7,2.1H160.5z"
			/>
		<path class="st4" d="M171.8,30c-0.7,0-1.4-0.1-2-0.2c-0.6-0.2-1.2-0.4-1.6-0.6l0.9-2.1c0.4,0.2,0.8,0.4,1.3,0.6
			c0.5,0.1,0.9,0.2,1.4,0.2c0.3,0,0.5,0,0.6-0.1s0.3-0.1,0.3-0.2c0.1-0.1,0.1-0.2,0.1-0.3c0-0.2-0.1-0.3-0.2-0.4
			c-0.2-0.1-0.4-0.2-0.7-0.2s-0.6-0.1-0.9-0.2c-0.3-0.1-0.6-0.2-1-0.3c-0.3-0.1-0.6-0.3-0.9-0.5c-0.3-0.2-0.5-0.4-0.7-0.7
			c-0.2-0.3-0.2-0.7-0.2-1.2c0-0.5,0.1-1,0.4-1.5c0.3-0.4,0.7-0.8,1.3-1.1c0.6-0.3,1.3-0.4,2.1-0.4c0.6,0,1.1,0.1,1.6,0.2
			c0.5,0.1,1,0.3,1.5,0.6l-0.8,2.1c-0.4-0.2-0.8-0.4-1.2-0.5c-0.4-0.1-0.7-0.2-1.1-0.2c-0.3,0-0.5,0-0.6,0.1c-0.2,0-0.3,0.1-0.3,0.2
			s-0.1,0.2-0.1,0.3c0,0.1,0.1,0.3,0.2,0.4c0.2,0.1,0.4,0.2,0.7,0.2c0.3,0.1,0.6,0.1,0.9,0.2c0.3,0.1,0.6,0.2,1,0.3
			c0.3,0.1,0.6,0.3,0.9,0.5c0.3,0.2,0.5,0.4,0.7,0.7c0.2,0.3,0.2,0.7,0.2,1.1c0,0.5-0.1,1-0.4,1.4c-0.3,0.4-0.7,0.8-1.3,1.1
			C173.3,29.8,172.6,30,171.8,30z"/>
		<path class="st4" d="M178.2,29.8v-6.4h-2.4v-2.3h7.6v2.3H181v6.4H178.2z"/>
		<path class="st4" d="M186.8,27.6h4.1v2.2h-6.8v-8.6h6.7v2.2h-4V27.6z M186.6,24.3h3.7v2.1h-3.7V24.3z"/>
		<path class="st4" d="M192,29.8v-8.6h4c0.8,0,1.4,0.1,2,0.4c0.6,0.3,1,0.6,1.3,1.1c0.3,0.5,0.5,1.1,0.5,1.7s-0.2,1.2-0.5,1.7
			c-0.3,0.5-0.7,0.8-1.3,1.1c-0.6,0.3-1.2,0.4-2,0.4h-2.4l1.2-1.2v3.4H192z M194.8,26.7l-1.2-1.3h2.2c0.4,0,0.7-0.1,0.9-0.3
			c0.2-0.2,0.3-0.4,0.3-0.7c0-0.3-0.1-0.6-0.3-0.7c-0.2-0.2-0.5-0.3-0.9-0.3h-2.2l1.2-1.3V26.7z M196.9,29.8l-2-3.1h2.9l2,3.1H196.9
			z"/>
	</g>
</g>
<g>
	<g>
		<path class="st4" d="M91.8,42.8l1.8-4.4H95l1.8,4.4h-1.5l-1.3-3.7h0.5l-1.3,3.7H91.8z M92.9,42l0.4-1.1h1.9l0.4,1.1H92.9z"/>
		<path class="st4" d="M98.6,42.8v-4.4h1.2l2.1,2.7h-0.5v-2.7h1.4v4.4h-1.2l-2.1-2.7h0.5v2.7H98.6z"/>
		<path class="st4" d="M107,42.9c-0.3,0-0.6-0.1-0.9-0.2s-0.5-0.3-0.7-0.5s-0.4-0.4-0.5-0.7c-0.1-0.3-0.2-0.6-0.2-0.9
			c0-0.3,0.1-0.6,0.2-0.9c0.1-0.3,0.3-0.5,0.5-0.7c0.2-0.2,0.5-0.4,0.7-0.5s0.6-0.2,0.9-0.2c0.4,0,0.8,0.1,1.1,0.2
			c0.3,0.1,0.6,0.4,0.8,0.6L108,40c-0.1-0.2-0.3-0.3-0.4-0.4c-0.1-0.1-0.3-0.1-0.5-0.1c-0.1,0-0.3,0-0.4,0.1c-0.1,0-0.2,0.1-0.3,0.2
			s-0.2,0.2-0.2,0.3c0,0.1-0.1,0.3-0.1,0.5c0,0.2,0,0.3,0.1,0.5c0,0.1,0.1,0.3,0.2,0.3s0.2,0.2,0.3,0.2c0.1,0.1,0.3,0.1,0.4,0.1
			c0.2,0,0.4,0,0.5-0.1c0.1-0.1,0.3-0.2,0.4-0.4l0.9,0.8c-0.2,0.3-0.5,0.5-0.8,0.6C107.8,42.8,107.4,42.9,107,42.9z"/>
		<path class="st4" d="M112.2,42.8h-1.4v-4.4h1.4V42.8z M113.5,41.2h-1.5V40h1.5V41.2z M113.4,38.4h1.4v4.4h-1.4V38.4z"/>
		<path class="st4" d="M119.2,42.9c-0.3,0-0.6-0.1-0.9-0.2s-0.5-0.3-0.7-0.5s-0.4-0.4-0.5-0.7c-0.1-0.3-0.2-0.6-0.2-0.9
			c0-0.3,0.1-0.6,0.2-0.9c0.1-0.3,0.3-0.5,0.5-0.7s0.5-0.4,0.7-0.5s0.6-0.2,0.9-0.2c0.3,0,0.7,0.1,0.9,0.2c0.3,0.1,0.5,0.3,0.7,0.5
			s0.4,0.4,0.5,0.7c0.1,0.3,0.2,0.6,0.2,0.9c0,0.3-0.1,0.6-0.2,0.9c-0.1,0.3-0.3,0.5-0.5,0.7s-0.5,0.4-0.7,0.5
			C119.9,42.8,119.5,42.9,119.2,42.9z M119.2,41.7c0.1,0,0.3,0,0.4-0.1c0.1,0,0.2-0.1,0.3-0.2c0.1-0.1,0.2-0.2,0.2-0.3
			c0-0.1,0.1-0.3,0.1-0.5c0-0.2,0-0.3-0.1-0.5c0-0.1-0.1-0.2-0.2-0.3c-0.1-0.1-0.2-0.2-0.3-0.2s-0.2-0.1-0.4-0.1s-0.3,0-0.4,0.1
			c-0.1,0-0.2,0.1-0.3,0.2s-0.2,0.2-0.2,0.3c0,0.1-0.1,0.3-0.1,0.5c0,0.2,0,0.3,0.1,0.5c0,0.1,0.1,0.2,0.2,0.3s0.2,0.2,0.3,0.2
			C118.9,41.7,119.1,41.7,119.2,41.7z"/>
		<path class="st4" d="M123.5,42.8v-4.4h2c0.4,0,0.7,0.1,1,0.2c0.3,0.1,0.5,0.3,0.7,0.6c0.2,0.2,0.2,0.5,0.2,0.9
			c0,0.3-0.1,0.6-0.2,0.9c-0.2,0.2-0.4,0.4-0.7,0.6s-0.6,0.2-1,0.2h-1.2l0.6-0.6v1.7H123.5z M124.9,41.3l-0.6-0.7h1.1
			c0.2,0,0.3,0,0.4-0.1s0.1-0.2,0.1-0.4s0-0.3-0.1-0.4s-0.2-0.1-0.4-0.1h-1.1l0.6-0.7V41.3z M126,42.8l-1-1.6h1.5l1,1.6H126z"/>
		<path class="st4" d="M133.8,42.8v-1.9l0.3,0.9l-1.9-3.3h1.5l1.3,2.3h-0.9l1.3-2.3h1.4l-1.9,3.3l0.3-0.9v1.9H133.8z"/>
		<path class="st4" d="M140.6,42.9c-0.3,0-0.6-0.1-0.9-0.2s-0.5-0.3-0.7-0.5s-0.4-0.4-0.5-0.7c-0.1-0.3-0.2-0.6-0.2-0.9
			c0-0.3,0.1-0.6,0.2-0.9c0.1-0.3,0.3-0.5,0.5-0.7s0.5-0.4,0.7-0.5s0.6-0.2,0.9-0.2c0.3,0,0.7,0.1,0.9,0.2c0.3,0.1,0.5,0.3,0.7,0.5
			s0.4,0.4,0.5,0.7c0.1,0.3,0.2,0.6,0.2,0.9c0,0.3-0.1,0.6-0.2,0.9c-0.1,0.3-0.3,0.5-0.5,0.7s-0.5,0.4-0.7,0.5
			C141.3,42.8,141,42.9,140.6,42.9z M140.6,41.7c0.1,0,0.3,0,0.4-0.1c0.1,0,0.2-0.1,0.3-0.2c0.1-0.1,0.2-0.2,0.2-0.3
			c0-0.1,0.1-0.3,0.1-0.5c0-0.2,0-0.3-0.1-0.5c0-0.1-0.1-0.2-0.2-0.3c-0.1-0.1-0.2-0.2-0.3-0.2s-0.2-0.1-0.4-0.1s-0.3,0-0.4,0.1
			c-0.1,0-0.2,0.1-0.3,0.2s-0.2,0.2-0.2,0.3c0,0.1-0.1,0.3-0.1,0.5c0,0.2,0,0.3,0.1,0.5c0,0.1,0.1,0.2,0.2,0.3s0.2,0.2,0.3,0.2
			C140.4,41.7,140.5,41.7,140.6,41.7z"/>
		<path class="st4" d="M146.9,42.9c-0.6,0-1.1-0.2-1.5-0.5s-0.5-0.9-0.5-1.5v-2.4h1.4v2.4c0,0.3,0.1,0.6,0.2,0.7
			c0.1,0.1,0.3,0.2,0.5,0.2c0.2,0,0.4-0.1,0.5-0.2s0.2-0.4,0.2-0.7v-2.4h1.4v2.4c0,0.7-0.2,1.2-0.5,1.5
			C148.1,42.7,147.6,42.9,146.9,42.9z"/>
		<path class="st4" d="M151.1,42.8v-4.4h2c0.4,0,0.7,0.1,1,0.2c0.3,0.1,0.5,0.3,0.7,0.6c0.2,0.2,0.2,0.5,0.2,0.9
			c0,0.3-0.1,0.6-0.2,0.9c-0.2,0.2-0.4,0.4-0.7,0.6s-0.6,0.2-1,0.2h-1.2l0.6-0.6v1.7H151.1z M152.5,41.3l-0.6-0.7h1.1
			c0.2,0,0.3,0,0.4-0.1s0.1-0.2,0.1-0.4s0-0.3-0.1-0.4s-0.2-0.1-0.4-0.1h-1.1l0.6-0.7V41.3z M153.6,42.8l-1-1.6h1.5l1,1.6H153.6z"/>
		<path class="st4" d="M160.3,42.8v-4.4h2.1c0.5,0,0.9,0.1,1.2,0.3c0.4,0.2,0.6,0.4,0.8,0.8c0.2,0.3,0.3,0.7,0.3,1.2
			c0,0.5-0.1,0.8-0.3,1.2c-0.2,0.3-0.5,0.6-0.8,0.8c-0.4,0.2-0.8,0.3-1.2,0.3H160.3z M161.7,41.6h0.6c0.2,0,0.4,0,0.5-0.1
			c0.1-0.1,0.3-0.2,0.3-0.4c0.1-0.2,0.1-0.3,0.1-0.6c0-0.2,0-0.4-0.1-0.6c-0.1-0.2-0.2-0.3-0.3-0.3c-0.1-0.1-0.3-0.1-0.5-0.1h-0.6
			V41.6z"/>
		<path class="st4" d="M166.7,42.8v-4.4h2c0.4,0,0.7,0.1,1,0.2c0.3,0.1,0.5,0.3,0.7,0.6c0.2,0.2,0.2,0.5,0.2,0.9
			c0,0.3-0.1,0.6-0.2,0.9c-0.2,0.2-0.4,0.4-0.7,0.6s-0.6,0.2-1,0.2h-1.2l0.6-0.6v1.7H166.7z M168.1,41.3l-0.6-0.7h1.1
			c0.2,0,0.3,0,0.4-0.1s0.1-0.2,0.1-0.4s0-0.3-0.1-0.4s-0.2-0.1-0.4-0.1h-1.1l0.6-0.7V41.3z M169.2,42.8l-1-1.6h1.5l1,1.6H169.2z"/>
		<path class="st4" d="M174,41.7h2.1v1.1h-3.5v-4.4h3.4v1.1h-2V41.7z M173.9,40h1.9v1.1h-1.9V40z"/>
		<path class="st4" d="M177.6,42.8l1.8-4.4h1.4l1.8,4.4h-1.5l-1.3-3.7h0.5l-1.3,3.7H177.6z M178.7,42l0.4-1.1h1.9l0.4,1.1H178.7z"/>
		<path class="st4" d="M184.4,42.8v-4.4h1.2l1.7,2.9h-0.6l1.6-2.9h1.2l0,4.4h-1.3l0-2.3h0.2l-1.1,2h-0.6l-1.2-2h0.2v2.3H184.4z"/>
		<path class="st4" d="M193.1,42.9c-0.3,0-0.7,0-1-0.1c-0.3-0.1-0.6-0.2-0.8-0.3l0.5-1.1c0.2,0.1,0.4,0.2,0.7,0.3
			c0.2,0.1,0.5,0.1,0.7,0.1c0.1,0,0.2,0,0.3,0s0.1,0,0.2-0.1c0,0,0.1-0.1,0.1-0.1c0-0.1,0-0.1-0.1-0.2s-0.2-0.1-0.3-0.1
			c-0.1,0-0.3-0.1-0.4-0.1c-0.2,0-0.3-0.1-0.5-0.1c-0.2-0.1-0.3-0.1-0.5-0.2s-0.2-0.2-0.3-0.4s-0.1-0.4-0.1-0.6
			c0-0.3,0.1-0.5,0.2-0.7s0.4-0.4,0.6-0.5c0.3-0.1,0.6-0.2,1.1-0.2c0.3,0,0.6,0,0.8,0.1s0.5,0.2,0.7,0.3l-0.4,1.1
			c-0.2-0.1-0.4-0.2-0.6-0.2c-0.2-0.1-0.4-0.1-0.6-0.1c-0.1,0-0.2,0-0.3,0c-0.1,0-0.1,0.1-0.2,0.1c0,0-0.1,0.1-0.1,0.1
			c0,0.1,0,0.1,0.1,0.2s0.2,0.1,0.3,0.1s0.3,0.1,0.5,0.1c0.2,0,0.3,0.1,0.5,0.1c0.2,0.1,0.3,0.1,0.4,0.2s0.2,0.2,0.3,0.4
			c0.1,0.2,0.1,0.3,0.1,0.6c0,0.3-0.1,0.5-0.2,0.7c-0.1,0.2-0.4,0.4-0.6,0.5C193.9,42.8,193.5,42.9,193.1,42.9z"/>
	</g>
</g>
</svg>
